<svg width="1135" height="177" viewBox="0 0 1135 177" fill="none" xmlns="http://www.w3.org/2000/svg">
<path d="M36.52 2C47.1333 2 54.52 3.89333 58.68 7.68C62.84 11.4133 64.92 16.6933 64.92 23.52C64.92 28.2133 64.0933 32.2133 62.44 35.52C60.7867 38.7733 57.88 41.3333 53.72 43.2C49.56 45.0133 43.8267 45.92 36.52 45.92H19.88V60H0.2C0.626667 49.6533 0.84 39.9733 0.84 30.96C0.84 21.9467 0.626667 12.2667 0.2 1.92H19.88V2H36.52ZM30.92 30.48C35.3467 30.48 38.6533 30.32 40.84 30C43.08 29.6267 44.6267 28.9867 45.48 28.08C46.3867 27.1733 46.84 25.84 46.84 24.08C46.84 22.32 46.4133 21.0133 45.56 20.16C44.76 19.2533 43.24 18.64 41 18.32C38.8133 18 35.4533 17.84 30.92 17.84H19.88V30.48H30.92ZM121.774 60C120.76 56.96 119.4 53.1467 117.694 48.56H92.1738L88.1738 60H68.0938L90.4938 1.92H119.934L142.494 60H121.774ZM113.134 36.08C111.107 30.48 109.027 24.88 106.894 19.28L104.974 14.08C103.107 18.9333 100.36 26.2667 96.7338 36.08H113.134ZM181.963 60.8C169.909 60.8 161.029 58.24 155.322 53.12C149.616 48 146.763 40.6933 146.763 31.2C146.763 21.6533 149.616 14.1067 155.322 8.56C161.029 3.01333 169.909 0.239997 181.963 0.239997C198.816 0.239997 210.096 6.02666 215.803 17.6C211.003 19.2533 205.376 21.7333 198.923 25.04C197.376 22.0533 194.923 19.84 191.563 18.4C188.256 16.96 184.869 16.24 181.403 16.24C176.283 16.24 172.469 17.6 169.963 20.32C167.456 22.9867 166.203 26.2933 166.203 30.24C166.203 34.5067 167.536 38 170.203 40.72C172.923 43.3867 177.056 44.72 182.603 44.72C187.029 44.72 190.549 44 193.163 42.56C195.776 41.0667 197.696 38.72 198.923 35.52C203.296 37.8667 208.896 40.5067 215.723 43.44C213.056 49.8933 208.603 54.4 202.363 56.96C196.123 59.52 189.323 60.8 181.963 60.8ZM257.431 60.8C245.378 60.8 236.498 58.24 230.791 53.12C225.085 48 222.231 40.6933 222.231 31.2C222.231 21.6533 225.085 14.1067 230.791 8.56C236.498 3.01333 245.378 0.239997 257.431 0.239997C274.285 0.239997 285.565 6.02666 291.271 17.6C286.471 19.2533 280.845 21.7333 274.391 25.04C272.845 22.0533 270.391 19.84 267.031 18.4C263.725 16.96 260.338 16.24 256.871 16.24C251.751 16.24 247.938 17.6 245.431 20.32C242.925 22.9867 241.671 26.2933 241.671 30.24C241.671 34.5067 243.005 38 245.671 40.72C248.391 43.3867 252.525 44.72 258.071 44.72C262.498 44.72 266.018 44 268.631 42.56C271.245 41.0667 273.165 38.72 274.391 35.52C278.765 37.8667 284.365 40.5067 291.191 43.44C288.525 49.8933 284.071 54.4 277.831 56.96C271.591 59.52 264.791 60.8 257.431 60.8ZM349.22 32.24C352.367 34.8 354.767 37.6533 356.42 40.8C358.127 43.8933 359.78 47.7067 361.38 52.24C362.713 55.92 363.78 58.5067 364.58 60H341.06C340.74 59.0933 340.313 57.52 339.78 55.28C339.247 52.8267 338.66 50.7733 338.02 49.12C337.433 47.4667 336.58 46.0267 335.46 44.8C333.647 42.88 331.38 41.6533 328.66 41.12C325.993 40.5333 322.313 40.24 317.62 40.24V60H297.7C298.127 49.6533 298.34 39.9733 298.34 30.96C298.34 21.9467 298.127 12.2667 297.7 1.92H317.62V22.8C318.153 22.8533 318.953 22.88 320.02 22.88C328.34 14.6667 334.527 7.68 338.58 1.92H364.5L339.62 26.72C343.14 28.1067 346.34 29.9467 349.22 32.24ZM421.461 60C420.448 56.96 419.088 53.1467 417.381 48.56H391.861L387.861 60H367.781L390.181 1.92H419.621L442.181 60H421.461ZM412.821 36.08C410.795 30.48 408.715 24.88 406.581 19.28L404.661 14.08C402.795 18.9333 400.048 26.2667 396.421 36.08H412.821ZM505.49 27.28C507.73 28.6133 509.81 30.2667 511.73 32.24C514.13 34.8 515.97 37.6533 517.25 40.8C518.53 43.8933 519.783 47.7067 521.01 52.24C521.863 55.7067 522.663 58.2933 523.41 60H503.89C503.73 59.52 503.41 57.9733 502.93 55.36C502.503 52.8533 502.05 50.7733 501.57 49.12C501.143 47.4667 500.503 46.0267 499.65 44.8C498.477 43.04 497.223 41.6533 495.89 40.64C494.557 39.6267 492.983 38.88 491.17 38.4C491.277 45.6 491.437 52.8 491.65 60H475.81C476.077 52.8533 476.237 45.7333 476.29 38.64C474.69 39.12 473.277 39.8667 472.05 40.88C470.877 41.8933 469.73 43.2 468.61 44.8C467.757 46.0267 467.09 47.4667 466.61 49.12C466.183 50.7733 465.757 52.8533 465.33 55.36C464.85 57.9733 464.53 59.52 464.37 60H444.85C445.597 58.2933 446.397 55.7067 447.25 52.24C448.477 47.7067 449.73 43.8933 451.01 40.8C452.29 37.6533 454.13 34.8 456.53 32.24C458.45 30.2667 460.53 28.6133 462.77 27.28L443.25 1.92H464.69C466.13 5.12 467.863 8.56 469.89 12.24C471.917 15.8667 474.023 19.28 476.21 22.48C476.21 16.4 476.077 9.54667 475.81 1.92H491.65C491.437 8.96 491.277 16 491.17 23.04C491.383 23.04 491.517 23.0667 491.57 23.12C493.81 19.8667 495.997 16.3733 498.13 12.64C500.263 8.85333 502.077 5.28 503.57 1.92H525.01L505.49 27.28ZM548.863 2L547.503 46.88L566.943 2H596.383C596.009 11.0133 595.823 20.6667 595.823 30.96C595.823 41.3067 596.009 50.9867 596.383 60H575.823L577.263 16.32L557.903 60H529.263C529.689 49.6533 529.903 39.9733 529.903 30.96C529.903 22 529.689 12.3467 529.263 2H548.863ZM685.834 1.92C685.46 10.9333 685.274 20.6133 685.274 30.96C685.274 41.3067 685.46 50.9867 685.834 60H667.034V38.24H637.594V60H618.794C619.22 49.6533 619.434 39.9733 619.434 30.96C619.434 21.9467 619.22 12.2667 618.794 1.92H637.594V23.68H667.034V1.92H685.834ZM711.111 45.36C731.378 45.2533 746.071 44.96 755.191 44.48C754.818 46.6667 754.578 48.9333 754.471 51.28C754.418 53.5733 754.391 56.48 754.391 60H692.231C692.658 49.6533 692.871 39.9733 692.871 30.96C692.871 21.9467 692.658 12.2667 692.231 1.92H754.391V16.4H711.111V24.08C713.671 24.1333 717.458 24.16 722.471 24.16C730.951 24.16 739.725 24 748.791 23.68V37.44C739.725 37.12 730.951 36.96 722.471 36.96C717.458 36.96 713.671 36.9867 711.111 37.04V45.36ZM836.406 1.92L842.646 60H821.926L820.646 18.56L812.646 60H791.686L783.526 18.88L782.326 60H761.606L767.846 1.92H795.046L802.006 39.76L808.086 1.92H836.406ZM916.068 1.92C915.695 10.9333 915.508 20.6133 915.508 30.96C915.508 41.3067 915.695 50.9867 916.068 60H897.268V38.24H867.828V60H849.028C849.455 49.6533 849.668 39.9733 849.668 30.96C849.668 21.9467 849.455 12.2667 849.028 1.92H867.828V23.68H897.268V1.92H916.068ZM958.066 60.8C945.852 60.8 936.866 58.16 931.106 52.88C925.346 47.5467 922.466 40.08 922.466 30.48C922.466 20.9867 925.319 13.5733 931.026 8.24C936.786 2.90666 945.799 0.239997 958.066 0.239997C970.386 0.239997 979.399 2.90666 985.106 8.24C990.866 13.5733 993.746 20.9867 993.746 30.48C993.746 40.1333 990.892 47.6 985.186 52.88C979.479 58.16 970.439 60.8 958.066 60.8ZM958.066 44.48C963.986 44.48 968.252 43.36 970.866 41.12C973.479 38.8267 974.786 35.28 974.786 30.48C974.786 25.7867 973.479 22.2933 970.866 20C968.252 17.7067 963.986 16.56 958.066 16.56C952.199 16.56 947.959 17.7067 945.346 20C942.732 22.2933 941.426 25.7867 941.426 30.48C941.426 35.2267 942.732 38.7467 945.346 41.04C947.959 43.3333 952.199 44.48 958.066 44.48ZM1019.64 60H1000.12C1000.55 49.6 1000.76 39.92 1000.76 30.96C1000.76 21.9467 1000.55 12.2667 1000.12 1.92H1056.76C1056.66 6.29333 1056.6 9.62666 1056.6 11.92C1056.6 14.7467 1056.63 16.88 1056.68 18.32H1019.64V60ZM1098.77 60.8C1086.56 60.8 1077.57 58.16 1071.81 52.88C1066.05 47.5467 1063.17 40.08 1063.17 30.48C1063.17 20.9867 1066.02 13.5733 1071.73 8.24C1077.49 2.90666 1086.5 0.239997 1098.77 0.239997C1111.09 0.239997 1120.1 2.90666 1125.81 8.24C1131.57 13.5733 1134.45 20.9867 1134.45 30.48C1134.45 40.1333 1131.6 47.6 1125.89 52.88C1120.18 58.16 1111.14 60.8 1098.77 60.8ZM1098.77 44.48C1104.69 44.48 1108.96 43.36 1111.57 41.12C1114.18 38.8267 1115.49 35.28 1115.49 30.48C1115.49 25.7867 1114.18 22.2933 1111.57 20C1108.96 17.7067 1104.69 16.56 1098.77 16.56C1092.9 16.56 1088.66 17.7067 1086.05 20C1083.44 22.2933 1082.13 25.7867 1082.13 30.48C1082.13 35.2267 1083.44 38.7467 1086.05 41.04C1088.66 43.3333 1092.9 44.48 1098.77 44.48Z" fill="url(#paint0_linear_507_2)"/>
<path d="M35.8 176.8C23.5867 176.8 14.6 174.16 8.84 168.88C3.08 163.547 0.2 156.08 0.2 146.48C0.2 136.987 3.05333 129.573 8.76 124.24C14.52 118.907 23.5333 116.24 35.8 116.24C48.12 116.24 57.1333 118.907 62.84 124.24C68.6 129.573 71.48 136.987 71.48 146.48C71.48 156.133 68.6267 163.6 62.92 168.88C57.2133 174.16 48.1733 176.8 35.8 176.8ZM35.8 160.48C41.72 160.48 45.9867 159.36 48.6 157.12C51.2133 154.827 52.52 151.28 52.52 146.48C52.52 141.787 51.2133 138.293 48.6 136C45.9867 133.707 41.72 132.56 35.8 132.56C29.9333 132.56 25.6933 133.707 23.08 136C20.4667 138.293 19.16 141.787 19.16 146.48C19.16 151.227 20.4667 154.747 23.08 157.04C25.6933 159.333 29.9333 160.48 35.8 160.48ZM129.072 176.8C117.019 176.8 108.139 174.24 102.432 169.12C96.7252 164 93.8719 156.693 93.8719 147.2C93.8719 137.653 96.7252 130.107 102.432 124.56C108.139 119.013 117.019 116.24 129.072 116.24C145.925 116.24 157.205 122.027 162.912 133.6C158.112 135.253 152.485 137.733 146.032 141.04C144.485 138.053 142.032 135.84 138.672 134.4C135.365 132.96 131.979 132.24 128.512 132.24C123.392 132.24 119.579 133.6 117.072 136.32C114.565 138.987 113.312 142.293 113.312 146.24C113.312 150.507 114.645 154 117.312 156.72C120.032 159.387 124.165 160.72 129.712 160.72C134.139 160.72 137.659 160 140.272 158.56C142.885 157.067 144.805 154.72 146.032 151.52C150.405 153.867 156.005 156.507 162.832 159.44C160.165 165.893 155.712 170.4 149.472 172.96C143.232 175.52 136.432 176.8 129.072 176.8ZM188.221 161.36C208.487 161.253 223.181 160.96 232.301 160.48C231.927 162.667 231.687 164.933 231.581 167.28C231.527 169.573 231.501 172.48 231.501 176H169.341C169.767 165.653 169.981 155.973 169.981 146.96C169.981 137.947 169.767 128.267 169.341 117.92H231.501V132.4H188.221V140.08C190.781 140.133 194.567 140.16 199.581 140.16C208.061 140.16 216.834 140 225.901 139.68V153.44C216.834 153.12 208.061 152.96 199.581 152.96C194.567 152.96 190.781 152.987 188.221 153.04V161.36ZM272.636 139.76C279.942 139.76 285.676 140.533 289.836 142.08C293.996 143.573 296.902 145.653 298.556 148.32C300.209 150.987 301.036 154.267 301.036 158.16C301.036 163.813 298.956 168.187 294.796 171.28C290.636 174.373 283.249 175.92 272.636 175.92H258.396V176H238.716C239.142 165.653 239.356 155.973 239.356 146.96C239.356 137.947 239.142 128.267 238.716 117.92H297.676V134H258.396V139.76H272.636ZM269.436 162.08C273.116 162.08 275.889 161.947 277.756 161.68C279.676 161.413 281.009 160.987 281.756 160.4C282.556 159.813 282.956 158.933 282.956 157.76C282.956 156.587 282.556 155.68 281.756 155.04C280.956 154.4 279.596 153.947 277.676 153.68C275.756 153.413 273.009 153.28 269.436 153.28H258.396V162.08H269.436ZM325.486 161.36C345.753 161.253 360.446 160.96 369.566 160.48C369.193 162.667 368.953 164.933 368.846 167.28C368.793 169.573 368.766 172.48 368.766 176H306.606C307.033 165.653 307.246 155.973 307.246 146.96C307.246 137.947 307.033 128.267 306.606 117.92H368.766V132.4H325.486V140.08C328.046 140.133 331.833 140.16 336.846 140.16C345.326 140.16 354.1 140 363.166 139.68V153.44C354.1 153.12 345.326 152.96 336.846 152.96C331.833 152.96 328.046 152.987 325.486 153.04V161.36Z" fill="black"/>
<defs>
<linearGradient id="paint0_linear_507_2" x1="610.52" y1="-33" x2="628.842" y2="197.895" gradientUnits="userSpaceOnUse">
<stop stop-color="#92D7C7"/>
<stop offset="1" stop-color="#1A5043"/>
</linearGradient>
</defs>
</svg>
