<svg width="1148" height="180" viewBox="0 0 1148 180" fill="none" xmlns="http://www.w3.org/2000/svg">
<path d="M64.44 4.92C64.0667 11.64 63.88 21.2933 63.88 33.88C63.88 46.4667 64.0667 56.12 64.44 62.84H44.28L44.52 48.36C38.6 52.4133 31.72 54.44 23.88 54.44C15.56 54.44 9.58667 52.4933 5.96 48.6C2.38667 44.7067 0.6 39.0533 0.6 31.64V22.2C0.6 14.9467 0.466667 9.18666 0.2 4.92H19.16C18.84 12.76 18.68 20.0667 18.68 26.84C18.68 29.56 19.0533 31.7467 19.8 33.4C20.6 35.0533 21.9067 36.28 23.72 37.08C25.5867 37.88 28.1733 38.28 31.48 38.28C36.8667 38.28 41.24 36.6 44.6 33.24V25.4C44.6 15.8533 44.4933 9.02666 44.28 4.92H64.44ZM121.305 63C120.292 59.96 118.932 56.1467 117.225 51.56H91.705L87.705 63H67.625L90.025 4.92H119.465L142.025 63H121.305ZM112.665 39.08C110.638 33.48 108.558 27.88 106.425 22.28L104.505 17.08C102.638 21.9333 99.8917 29.2667 96.265 39.08H112.665ZM181.494 63.8C169.44 63.8 160.56 61.24 154.854 56.12C149.147 51 146.294 43.6933 146.294 34.2C146.294 24.6533 149.147 17.1067 154.854 11.56C160.56 6.01333 169.44 3.24 181.494 3.24C198.347 3.24 209.627 9.02666 215.334 20.6C210.534 22.2533 204.907 24.7333 198.454 28.04C196.907 25.0533 194.454 22.84 191.094 21.4C187.787 19.96 184.4 19.24 180.934 19.24C175.814 19.24 172 20.6 169.494 23.32C166.987 25.9867 165.734 29.2933 165.734 33.24C165.734 37.5067 167.067 41 169.734 43.72C172.454 46.3867 176.587 47.72 182.134 47.72C186.56 47.72 190.08 47 192.694 45.56C195.307 44.0667 197.227 41.72 198.454 38.52C202.827 40.8667 208.427 43.5067 215.254 46.44C212.587 52.8933 208.134 57.4 201.894 59.96C195.654 62.52 188.854 63.8 181.494 63.8ZM290.483 21.72C282.109 21.4533 273.976 21.2933 266.083 21.24V63H246.083V21.24C238.136 21.2933 230.029 21.4533 221.763 21.72V4.92H290.483V21.72ZM332.519 63.8C320.305 63.8 311.319 61.16 305.559 55.88C299.799 50.5467 296.919 43.08 296.919 33.48C296.919 23.9867 299.772 16.5733 305.479 11.24C311.239 5.90666 320.252 3.24 332.519 3.24C344.839 3.24 353.852 5.90666 359.559 11.24C365.319 16.5733 368.199 23.9867 368.199 33.48C368.199 43.1333 365.345 50.6 359.639 55.88C353.932 61.16 344.892 63.8 332.519 63.8ZM332.519 47.48C338.439 47.48 342.705 46.36 345.319 44.12C347.932 41.8267 349.239 38.28 349.239 33.48C349.239 28.7867 347.932 25.2933 345.319 23C342.705 20.7067 338.439 19.56 332.519 19.56C326.652 19.56 322.412 20.7067 319.799 23C317.185 25.2933 315.879 28.7867 315.879 33.48C315.879 38.2267 317.185 41.7467 319.799 44.04C322.412 46.3333 326.652 47.48 332.519 47.48ZM435.231 33.56C437.151 33.1867 439.044 33 440.911 33C444.164 33 446.804 33.56 448.831 34.68C450.911 35.7467 452.404 37.1333 453.311 38.84C454.217 40.4933 454.671 42.2267 454.671 44.04C454.671 48.2533 453.284 51.8533 450.511 54.84C447.737 57.7733 443.977 60.0133 439.231 61.56C434.484 63.0533 429.204 63.8 423.391 63.8C406.537 63.8 395.631 57.9333 390.671 46.2L395.151 45.08C398.457 44.28 401.257 43.5333 403.551 42.84C405.897 42.0933 407.951 41.2667 409.711 40.36C410.777 43.0267 412.297 44.9467 414.271 46.12C416.297 47.24 419.071 47.8 422.591 47.8C426.324 47.8 429.364 47.3733 431.711 46.52C434.057 45.6667 435.231 44.3867 435.231 42.68C435.231 41.7733 434.777 41.08 433.871 40.6C432.964 40.12 431.524 39.8 429.551 39.64C427.577 39.4267 424.804 39.32 421.231 39.32H415.151V25.32H418.831C422.884 25.32 426.191 25.16 428.751 24.84C431.311 24.4667 432.591 23.6933 432.591 22.52C432.591 21.1867 431.897 20.12 430.511 19.32C429.177 18.4667 427.071 18.04 424.191 18.04C420.457 18.04 417.417 18.8133 415.071 20.36C412.777 21.9067 410.991 24.1467 409.711 27.08C404.004 24.7867 397.924 23.16 391.471 22.2C394.031 16.44 397.951 11.9867 403.231 8.84C408.564 5.69333 415.417 4.12 423.791 4.12C429.231 4.12 434.111 4.84 438.431 6.28C442.804 7.66666 446.217 9.61333 448.671 12.12C451.177 14.6267 452.431 17.4267 452.431 20.52C452.431 22.3333 452.004 23.96 451.151 25.4C450.297 26.7867 448.617 28.1733 446.111 29.56C443.604 30.8933 439.977 32.2267 435.231 33.56ZM511.539 63C510.526 59.96 509.166 56.1467 507.459 51.56H481.939L477.939 63H457.859L480.259 4.92H509.699L532.259 63H511.539ZM502.899 39.08C500.873 33.48 498.793 27.88 496.659 22.28L494.739 17.08C492.873 21.9333 490.126 29.2667 486.499 39.08H502.899ZM603.648 48.76H606.928V76.2H587.968V64.6H552.288V76.44H533.328V48.76H537.328C539.621 48.3333 541.381 47.4 542.608 45.96C543.835 44.52 544.741 42.2267 545.328 39.08C545.808 36.4667 546.048 30.52 546.048 21.24L545.968 4.92L603.648 5V48.76ZM563.968 45.32C563.648 46.8133 563.355 47.96 563.088 48.76H583.408V20.6H565.488L565.408 25.24C565.408 29.2933 565.301 32.8667 565.088 35.96C564.928 39 564.555 42.12 563.968 45.32ZM663.805 63C662.792 59.96 661.432 56.1467 659.725 51.56H634.205L630.205 63H610.125L632.525 4.92H661.965L684.525 63H663.805ZM655.165 39.08C653.138 33.48 651.058 27.88 648.925 22.28L647.005 17.08C645.138 21.9333 642.392 29.2667 638.765 39.08H655.165ZM735.674 34.12C747.834 34.12 753.914 37.9867 753.914 45.72C753.914 49.3467 753.087 52.44 751.434 55C749.78 57.5067 746.82 59.48 742.554 60.92C738.287 62.3067 732.367 63 724.794 63H688.794C689.22 52.6533 689.434 42.9733 689.434 33.96C689.434 24.9467 689.22 15.2667 688.794 4.92H707.594V5H724.634C731.247 5 736.447 5.56 740.234 6.68C744.074 7.74666 746.767 9.32 748.314 11.4C749.914 13.48 750.714 16.12 750.714 19.32C750.714 22.5733 749.567 25.48 747.274 28.04C745.034 30.5467 741.167 32.5733 735.674 34.12ZM707.594 19.56V27H722.954C726.26 27 728.554 26.7067 729.834 26.12C731.167 25.5333 731.834 24.4667 731.834 22.92C731.834 21.6933 731.14 20.84 729.754 20.36C728.42 19.8267 726.154 19.56 722.954 19.56H707.594ZM722.954 48.36C725.727 48.36 727.834 48.2533 729.274 48.04C730.767 47.7733 731.834 47.3467 732.474 46.76C733.114 46.12 733.434 45.2667 733.434 44.2C733.434 42.8133 732.66 41.8267 731.114 41.24C729.62 40.6 726.9 40.28 722.954 40.28H707.594V48.36H722.954ZM810.758 63C809.745 59.96 808.385 56.1467 806.678 51.56H781.158L777.158 63H757.078L779.478 4.92H808.918L831.478 63H810.758ZM802.118 39.08C800.091 33.48 798.011 27.88 795.878 22.28L793.958 17.08C792.091 21.9333 789.345 29.2667 785.718 39.08H802.118ZM854.627 48.36C874.894 48.2533 889.587 47.96 898.707 47.48C898.334 49.6667 898.094 51.9333 897.987 54.28C897.934 56.5733 897.907 59.48 897.907 63H835.747C836.174 52.6533 836.387 42.9733 836.387 33.96C836.387 24.9467 836.174 15.2667 835.747 4.92H897.907V19.4H854.627V27.08C857.187 27.1333 860.974 27.16 865.987 27.16C874.467 27.16 883.24 27 892.307 26.68V40.44C883.24 40.12 874.467 39.96 865.987 39.96C860.974 39.96 857.187 39.9867 854.627 40.04V48.36ZM979.922 4.92L986.162 63H965.442L964.162 21.56L956.162 63H935.202L927.042 21.88L925.842 63H905.122L911.362 4.92H938.562L945.522 42.76L951.602 4.92H979.922ZM1077.74 31C1077.69 34.2 1077.66 39.1067 1077.66 45.72C1077.66 53.6667 1077.72 59.4267 1077.82 63H1058.94L1059.02 53.96C1059.13 44.04 1059.18 36.3867 1059.18 31C1059.18 25.88 1059.13 18.6267 1059.02 9.24L1058.94 0.599998H1077.82C1077.77 2.30666 1077.74 4.97333 1077.74 8.6V23.56V31ZM1026.46 19C1033.77 19 1039.5 19.9333 1043.66 21.8C1047.82 23.6133 1050.73 26.1733 1052.38 29.48C1054.04 32.7333 1054.86 36.7067 1054.86 41.4C1054.86 48.2267 1052.78 53.5333 1048.62 57.32C1044.46 61.0533 1037.08 62.92 1026.46 62.92H1012.22V63H992.544C992.97 52.6533 993.184 42.9733 993.184 33.96C993.184 24.9467 992.97 15.2667 992.544 4.92H1012.22V19H1026.46ZM1023.26 47.08C1027 47.08 1029.8 46.92 1031.66 46.6C1033.58 46.2267 1034.92 45.6133 1035.66 44.76C1036.41 43.9067 1036.78 42.6 1036.78 40.84C1036.78 39.08 1036.38 37.7467 1035.58 36.84C1034.78 35.9333 1033.42 35.32 1031.5 35C1029.64 34.6267 1026.89 34.44 1023.26 34.44H1012.22V47.08H1023.26ZM1103.14 48.36C1123.41 48.2533 1138.1 47.96 1147.22 47.48C1146.85 49.6667 1146.61 51.9333 1146.5 54.28C1146.45 56.5733 1146.42 59.48 1146.42 63H1084.26C1084.69 52.6533 1084.9 42.9733 1084.9 33.96C1084.9 24.9467 1084.69 15.2667 1084.26 4.92H1146.42V19.4H1103.14V27.08C1105.7 27.1333 1109.49 27.16 1114.5 27.16C1122.98 27.16 1131.76 27 1140.82 26.68V40.44C1131.76 40.12 1122.98 39.96 1114.5 39.96C1109.49 39.96 1105.7 39.9867 1103.14 40.04V48.36Z" fill="url(#paint0_linear_503_569)"/>
<path d="M47.08 150.12C59.24 150.12 65.32 153.987 65.32 161.72C65.32 165.347 64.4933 168.44 62.84 171C61.1867 173.507 58.2267 175.48 53.96 176.92C49.6933 178.307 43.7733 179 36.2 179H0.2C0.626667 168.653 0.84 158.973 0.84 149.96C0.84 140.947 0.626667 131.267 0.2 120.92H19V121H36.04C42.6533 121 47.8533 121.56 51.64 122.68C55.48 123.747 58.1733 125.32 59.72 127.4C61.32 129.48 62.12 132.12 62.12 135.32C62.12 138.573 60.9733 141.48 58.68 144.04C56.44 146.547 52.5733 148.573 47.08 150.12ZM19 135.56V143H34.36C37.6667 143 39.96 142.707 41.24 142.12C42.5733 141.533 43.24 140.467 43.24 138.92C43.24 137.693 42.5467 136.84 41.16 136.36C39.8267 135.827 37.56 135.56 34.36 135.56H19ZM34.36 164.36C37.1333 164.36 39.24 164.253 40.68 164.04C42.1733 163.773 43.24 163.347 43.88 162.76C44.52 162.12 44.84 161.267 44.84 160.2C44.84 158.813 44.0667 157.827 42.52 157.24C41.0267 156.6 38.3067 156.28 34.36 156.28H19V164.36H34.36ZM107.284 179.8C95.071 179.8 86.0844 177.16 80.3244 171.88C74.5644 166.547 71.6844 159.08 71.6844 149.48C71.6844 139.987 74.5377 132.573 80.2444 127.24C86.0044 121.907 95.0177 119.24 107.284 119.24C119.604 119.24 128.618 121.907 134.324 127.24C140.084 132.573 142.964 139.987 142.964 149.48C142.964 159.133 140.111 166.6 134.404 171.88C128.698 177.16 119.658 179.8 107.284 179.8ZM107.284 163.48C113.204 163.48 117.471 162.36 120.084 160.12C122.698 157.827 124.004 154.28 124.004 149.48C124.004 144.787 122.698 141.293 120.084 139C117.471 136.707 113.204 135.56 107.284 135.56C101.418 135.56 97.1777 136.707 94.5644 139C91.951 141.293 90.6444 144.787 90.6444 149.48C90.6444 154.227 91.951 157.747 94.5644 160.04C97.1777 162.333 101.418 163.48 107.284 163.48ZM213.981 120.92C213.607 129.933 213.421 139.613 213.421 149.96C213.421 160.307 213.607 169.987 213.981 179H195.181V137.08H168.141V179H149.341C149.767 168.653 149.981 158.973 149.981 149.96C149.981 140.947 149.767 131.267 149.341 120.92H213.981ZM256.676 121C267.29 121 274.676 122.893 278.836 126.68C282.996 130.413 285.076 135.693 285.076 142.52C285.076 147.213 284.25 151.213 282.596 154.52C280.943 157.773 278.036 160.333 273.876 162.2C269.716 164.013 263.983 164.92 256.676 164.92H240.036V179H220.356C220.783 168.653 220.996 158.973 220.996 149.96C220.996 140.947 220.783 131.267 220.356 120.92H240.036V121H256.676ZM251.076 149.48C255.503 149.48 258.81 149.32 260.996 149C263.236 148.627 264.783 147.987 265.636 147.08C266.543 146.173 266.996 144.84 266.996 143.08C266.996 141.32 266.57 140.013 265.716 139.16C264.916 138.253 263.396 137.64 261.156 137.32C258.97 137 255.61 136.84 251.076 136.84H240.036V149.48H251.076ZM327.05 179.8C314.837 179.8 305.85 177.16 300.09 171.88C294.33 166.547 291.45 159.08 291.45 149.48C291.45 139.987 294.303 132.573 300.01 127.24C305.77 121.907 314.783 119.24 327.05 119.24C339.37 119.24 348.383 121.907 354.09 127.24C359.85 132.573 362.73 139.987 362.73 149.48C362.73 159.133 359.877 166.6 354.17 171.88C348.463 177.16 339.423 179.8 327.05 179.8ZM327.05 163.48C332.97 163.48 337.237 162.36 339.85 160.12C342.463 157.827 343.77 154.28 343.77 149.48C343.77 144.787 342.463 141.293 339.85 139C337.237 136.707 332.97 135.56 327.05 135.56C321.183 135.56 316.943 136.707 314.33 139C311.717 141.293 310.41 144.787 310.41 149.48C310.41 154.227 311.717 157.747 314.33 160.04C316.943 162.333 321.183 163.48 327.05 163.48ZM404.306 179.8C392.253 179.8 383.373 177.24 377.666 172.12C371.96 167 369.106 159.693 369.106 150.2C369.106 140.653 371.96 133.107 377.666 127.56C383.373 122.013 392.253 119.24 404.306 119.24C421.16 119.24 432.44 125.027 438.146 136.6C433.346 138.253 427.72 140.733 421.266 144.04C419.72 141.053 417.266 138.84 413.906 137.4C410.6 135.96 407.213 135.24 403.746 135.24C398.626 135.24 394.813 136.6 392.306 139.32C389.8 141.987 388.546 145.293 388.546 149.24C388.546 153.507 389.88 157 392.546 159.72C395.266 162.387 399.4 163.72 404.946 163.72C409.373 163.72 412.893 163 415.506 161.56C418.12 160.067 420.04 157.72 421.266 154.52C425.64 156.867 431.24 159.507 438.066 162.44C435.4 168.893 430.946 173.4 424.706 175.96C418.466 178.52 411.666 179.8 404.306 179.8ZM529.775 147C529.722 150.2 529.695 155.107 529.695 161.72C529.695 169.667 529.748 175.427 529.855 179H510.975L511.055 169.96C511.162 160.04 511.215 152.387 511.215 147C511.215 141.88 511.162 134.627 511.055 125.24L510.975 116.6H529.855C529.802 118.307 529.775 120.973 529.775 124.6V139.56V147ZM478.495 135C485.802 135 491.535 135.933 495.695 137.8C499.855 139.613 502.762 142.173 504.415 145.48C506.068 148.733 506.895 152.707 506.895 157.4C506.895 164.227 504.815 169.533 500.655 173.32C496.495 177.053 489.108 178.92 478.495 178.92H464.255V179H444.575C445.002 168.653 445.215 158.973 445.215 149.96C445.215 140.947 445.002 131.267 444.575 120.92H464.255V135H478.495ZM475.295 163.08C479.028 163.08 481.828 162.92 483.695 162.6C485.615 162.227 486.948 161.613 487.695 160.76C488.442 159.907 488.815 158.6 488.815 156.84C488.815 155.08 488.415 153.747 487.615 152.84C486.815 151.933 485.455 151.32 483.535 151C481.668 150.627 478.922 150.44 475.295 150.44H464.255V163.08H475.295Z" fill="black"/>
<defs>
<linearGradient id="paint0_linear_503_569" x1="617.51" y1="-30" x2="635.628" y2="200.928" gradientUnits="userSpaceOnUse">
<stop stop-color="#92D7C7"/>
<stop offset="1" stop-color="#1A5043"/>
</linearGradient>
</defs>
</svg>
