<svg width="246" height="110" viewBox="0 0 246 110" fill="none" xmlns="http://www.w3.org/2000/svg">
<rect x="178.141" y="1.63695" width="46.5248" height="47" rx="3.5" transform="rotate(19.2604 178.141 1.63695)" fill="white" stroke="#EBEBEB"/>
<ellipse cx="192.587" cy="30.6238" rx="5.94059" ry="6" transform="rotate(19.2604 192.587 30.6238)" fill="#FE621C"/>
<rect width="47.5691" height="47.956" rx="4" transform="matrix(0.973087 0.228621 -0.224531 0.974888 14.1011 12.3667)" fill="url(#paint0_linear_117_43)"/>
<path d="M25.3998 32.1447C28.2105 32.767 29.5731 35.0851 28.9111 38.1354C28.244 41.209 26.0462 42.7389 23.2354 42.1166C20.4247 41.4942 19.0621 39.1761 19.7292 36.1024C20.3913 33.0522 22.589 31.5224 25.3998 32.1447ZM35.9483 34.554L39.86 35.4201L24.602 49.2799L20.6903 48.4139L35.9483 34.554ZM24.9058 34.4206C23.6878 34.151 22.7427 34.9991 22.376 36.6885C22.0094 38.3778 22.5114 39.571 23.7294 39.8406C24.9474 40.1103 25.8976 39.2387 26.2643 37.5493C26.6309 35.86 26.1238 34.6903 24.9058 34.4206ZM37.4034 41.7616C40.2142 42.3839 41.5768 44.702 40.9148 47.7522C40.2476 50.8259 38.0499 52.3557 35.2391 51.7334C32.4283 51.1111 31.0658 48.793 31.7329 45.7193C32.3949 42.6691 34.5927 41.1392 37.4034 41.7616ZM36.9095 44.0375C35.6915 43.7678 34.7464 44.616 34.3797 46.3053C34.013 47.9947 34.5151 49.1878 35.7331 49.4575C36.9511 49.7272 37.9013 48.8556 38.2679 47.1662C38.6346 45.4769 38.1275 44.3072 36.9095 44.0375Z" fill="white"/>
<rect x="169.85" y="36" width="47.5248" height="48" rx="4" transform="rotate(15.5274 169.85 36)" fill="url(#paint1_linear_117_43)"/>
<rect x="47.8496" width="47.5248" height="48" rx="4" transform="rotate(15.5274 47.8496 0)" fill="url(#paint2_linear_117_43)"/>
<rect x="11" y="59.5376" width="47.5248" height="48" rx="4" transform="rotate(-10.3491 11 59.5376)" fill="url(#paint3_linear_117_43)"/>
<rect x="34.5817" y="23.9396" width="46.5248" height="47" rx="3.5" transform="rotate(-10.3491 34.5817 23.9396)" fill="url(#paint4_linear_117_43)" stroke="white"/>
<rect x="86.6733" y="5" width="47.5248" height="48" rx="4" transform="rotate(5.58702 86.6733 5)" fill="url(#paint5_linear_117_43)"/>
<rect width="47.5691" height="47.956" rx="4" transform="matrix(0.973087 0.228621 -0.224531 0.974888 147.101 48.3667)" fill="url(#paint6_linear_117_43)"/>
<path d="M158.4 68.1447C161.211 68.767 162.573 71.0851 161.911 74.1354C161.244 77.209 159.046 78.7389 156.235 78.1166C153.425 77.4942 152.062 75.1761 152.729 72.1024C153.391 69.0522 155.589 67.5224 158.4 68.1447ZM168.948 70.554L172.86 71.4201L157.602 85.2799L153.69 84.4139L168.948 70.554ZM157.906 70.4206C156.688 70.151 155.743 70.9991 155.376 72.6885C155.009 74.3778 155.511 75.571 156.729 75.8406C157.947 76.1103 158.898 75.2387 159.264 73.5493C159.631 71.86 159.124 70.6903 157.906 70.4206ZM170.403 77.7616C173.214 78.3839 174.577 80.702 173.915 83.7522C173.248 86.8259 171.05 88.3557 168.239 87.7334C165.428 87.1111 164.066 84.793 164.733 81.7193C165.395 78.6691 167.593 77.1392 170.403 77.7616ZM169.909 80.0375C168.691 79.7678 167.746 80.616 167.38 82.3053C167.013 83.9947 167.515 85.1878 168.733 85.4575C169.951 85.7272 170.901 84.8556 171.268 83.1662C171.635 81.4769 171.127 80.3072 169.909 80.0375Z" fill="white"/>
<rect x="53.5877" y="51.6423" width="46.5248" height="47" rx="3.5" transform="rotate(-11.2224 53.5877 51.6423)" fill="white" stroke="#EBEBEB"/>
<ellipse cx="80.9786" cy="70.1656" rx="5.94059" ry="6" transform="rotate(-11.2224 80.9786 70.1656)" fill="#FE621C"/>
<ellipse cx="107.995" cy="30.0414" rx="5.94059" ry="6" transform="rotate(-11.2224 107.995 30.0414)" fill="white"/>
<rect x="102.85" y="43" width="47.5248" height="48" rx="4" transform="rotate(15.5274 102.85 43)" fill="url(#paint7_linear_117_43)"/>
<rect width="47.5691" height="47.956" rx="4" transform="matrix(0.973087 0.228621 -0.224531 0.974888 133.101 13.3667)" fill="url(#paint8_linear_117_43)"/>
<path d="M144.4 33.1447C147.211 33.767 148.573 36.0851 147.911 39.1354C147.244 42.209 145.046 43.7389 142.235 43.1166C139.425 42.4942 138.062 40.1761 138.729 37.1024C139.391 34.0522 141.589 32.5224 144.4 33.1447ZM154.948 35.554L158.86 36.4201L143.602 50.2799L139.69 49.4139L154.948 35.554ZM143.906 35.4206C142.688 35.151 141.743 35.9991 141.376 37.6885C141.009 39.3778 141.511 40.571 142.729 40.8406C143.947 41.1103 144.898 40.2387 145.264 38.5493C145.631 36.86 145.124 35.6903 143.906 35.4206ZM156.403 42.7616C159.214 43.3839 160.577 45.702 159.915 48.7522C159.248 51.8259 157.05 53.3557 154.239 52.7334C151.428 52.1111 150.066 49.793 150.733 46.7193C151.395 43.6691 153.593 42.1392 156.403 42.7616ZM155.909 45.0375C154.691 44.7678 153.746 45.616 153.38 47.3053C153.013 48.9947 153.515 50.1878 154.733 50.4575C155.951 50.7272 156.901 49.8556 157.268 48.1662C157.635 46.4769 157.127 45.3072 155.909 45.0375Z" fill="white"/>
<rect x="190.588" y="45.6423" width="46.5248" height="47" rx="3.5" transform="rotate(-11.2224 190.588 45.6423)" fill="white" stroke="#EBEBEB"/>
<ellipse cx="217.979" cy="64.1656" rx="5.94059" ry="6" transform="rotate(-11.2224 217.979 64.1656)" fill="#FE621C"/>
<defs>
<linearGradient id="paint0_linear_117_43" x1="2.70635e-06" y1="43.3804" x2="47.8735" y2="4.95491" gradientUnits="userSpaceOnUse">
<stop stop-color="#0337B9"/>
<stop offset="1" stop-color="#88D1FF"/>
</linearGradient>
<linearGradient id="paint1_linear_117_43" x1="194.309" y1="84" x2="192.887" y2="36.0008" gradientUnits="userSpaceOnUse">
<stop stop-color="#2765FF"/>
<stop offset="1" stop-color="#5485FF"/>
</linearGradient>
<linearGradient id="paint2_linear_117_43" x1="72.3094" y1="48" x2="70.8865" y2="0.000833077" gradientUnits="userSpaceOnUse">
<stop stop-color="#2765FF"/>
<stop offset="1" stop-color="#5485FF"/>
</linearGradient>
<linearGradient id="paint3_linear_117_43" x1="34.7624" y1="59.5376" x2="34.7624" y2="107.538" gradientUnits="userSpaceOnUse">
<stop stop-color="#FE5D14"/>
<stop offset="1" stop-color="#FF7F45"/>
</linearGradient>
<linearGradient id="paint4_linear_117_43" x1="57.7624" y1="23.5376" x2="57.7624" y2="71.5376" gradientUnits="userSpaceOnUse">
<stop stop-color="#FE5D14"/>
<stop offset="1" stop-color="#FF7F45"/>
</linearGradient>
<linearGradient id="paint5_linear_117_43" x1="110.436" y1="5" x2="110.436" y2="53" gradientUnits="userSpaceOnUse">
<stop stop-color="#FE5D14"/>
<stop offset="1" stop-color="#FF7F45"/>
</linearGradient>
<linearGradient id="paint6_linear_117_43" x1="2.70635e-06" y1="43.3804" x2="47.8735" y2="4.95491" gradientUnits="userSpaceOnUse">
<stop stop-color="#0337B9"/>
<stop offset="1" stop-color="#88D1FF"/>
</linearGradient>
<linearGradient id="paint7_linear_117_43" x1="127.309" y1="91" x2="125.887" y2="43.0008" gradientUnits="userSpaceOnUse">
<stop stop-color="#2765FF"/>
<stop offset="1" stop-color="#5485FF"/>
</linearGradient>
<linearGradient id="paint8_linear_117_43" x1="2.70635e-06" y1="43.3804" x2="47.8735" y2="4.95491" gradientUnits="userSpaceOnUse">
<stop stop-color="#0337B9"/>
<stop offset="1" stop-color="#88D1FF"/>
</linearGradient>
</defs>
</svg>
