<svg width="1565" height="193" viewBox="0 0 1565 193" fill="none" xmlns="http://www.w3.org/2000/svg">
<path d="M36.52 5C47.1333 5 54.52 6.89333 58.68 10.68C62.84 14.4133 64.92 19.6933 64.92 26.52C64.92 31.2133 64.0933 35.2133 62.44 38.52C60.7867 41.7733 57.88 44.3333 53.72 46.2C49.56 48.0133 43.8267 48.92 36.52 48.92H19.88V63H0.2C0.626667 52.6533 0.84 42.9733 0.84 33.96C0.84 24.9467 0.626667 15.2667 0.2 4.92H19.88V5H36.52ZM30.92 33.48C35.3467 33.48 38.6533 33.32 40.84 33C43.08 32.6267 44.6267 31.9867 45.48 31.08C46.3867 30.1733 46.84 28.84 46.84 27.08C46.84 25.32 46.4133 24.0133 45.56 23.16C44.76 22.2533 43.24 21.64 41 21.32C38.8133 21 35.4533 20.84 30.92 20.84H19.88V33.48H30.92ZM90.1738 48.36C110.44 48.2533 125.134 47.96 134.254 47.48C133.88 49.6667 133.64 51.9333 133.534 54.28C133.48 56.5733 133.454 59.48 133.454 63H71.2938C71.7204 52.6533 71.9338 42.9733 71.9338 33.96C71.9338 24.9467 71.7204 15.2667 71.2938 4.92H133.454V19.4H90.1738V27.08C92.7338 27.1333 96.5204 27.16 101.534 27.16C110.014 27.16 118.787 27 127.854 26.68V40.44C118.787 40.12 110.014 39.96 101.534 39.96C96.5204 39.96 92.7338 39.9867 90.1738 40.04V48.36ZM191.149 63C190.135 59.96 188.775 56.1467 187.069 51.56H161.549L157.549 63H137.469L159.869 4.92H189.309L211.869 63H191.149ZM182.509 39.08C180.482 33.48 178.402 27.88 176.269 22.28L174.349 17.08C172.482 21.9333 169.735 29.2667 166.109 39.08H182.509ZM282.138 63H261.898V20.6H243.978L243.898 25.24C243.898 29.2933 243.791 32.8667 243.578 35.96C243.418 39 243.044 42.12 242.458 45.32C241.391 51.1333 238.671 55.8 234.298 59.32C229.978 62.84 223.924 64.6 216.138 64.6V49C218.218 48.5733 219.844 47.64 221.018 46.2C222.244 44.7067 223.178 42.3333 223.818 39.08C224.298 36.4667 224.538 30.52 224.538 21.24L224.458 4.92L282.138 5V63ZM322.479 19C329.786 19 335.519 19.9333 339.679 21.8C343.839 23.6133 346.746 26.1733 348.399 29.48C350.053 32.7333 350.879 36.7067 350.879 41.4C350.879 48.2267 348.799 53.5333 344.639 57.32C340.479 61.0533 333.093 62.92 322.479 62.92H308.239V63H288.559C288.986 52.6533 289.199 42.9733 289.199 33.96C289.199 24.9467 288.986 15.2667 288.559 4.92H308.239V19H322.479ZM319.279 47.08C323.013 47.08 325.813 46.92 327.679 46.6C329.599 46.2267 330.933 45.6133 331.679 44.76C332.426 43.9067 332.799 42.6 332.799 40.84C332.799 39.08 332.399 37.7467 331.599 36.84C330.799 35.9333 329.439 35.32 327.519 35C325.653 34.6267 322.906 34.44 319.279 34.44H308.239V47.08H319.279ZM423.49 4.92C423.117 13.9333 422.93 23.6133 422.93 33.96C422.93 44.3067 423.117 53.9867 423.49 63H404.69V41.24H375.25V63H356.45C356.877 52.6533 357.09 42.9733 357.09 33.96C357.09 24.9467 356.877 15.2667 356.45 4.92H375.25V26.68H404.69V4.92H423.49ZM515.088 31C515.034 34.2 515.008 39.1067 515.008 45.72C515.008 53.6667 515.061 59.4267 515.168 63H496.288L496.368 53.96C496.474 44.04 496.528 36.3867 496.528 31C496.528 25.88 496.474 18.6267 496.368 9.24L496.288 0.599998H515.168C515.114 2.30666 515.088 4.97333 515.088 8.6V23.56V31ZM463.808 19C471.114 19 476.848 19.9333 481.008 21.8C485.168 23.6133 488.074 26.1733 489.728 29.48C491.381 32.7333 492.208 36.7067 492.208 41.4C492.208 48.2267 490.128 53.5333 485.968 57.32C481.808 61.0533 474.421 62.92 463.808 62.92H449.568V63H429.888C430.314 52.6533 430.528 42.9733 430.528 33.96C430.528 24.9467 430.314 15.2667 429.888 4.92H449.568V19H463.808ZM460.608 47.08C464.341 47.08 467.141 46.92 469.008 46.6C470.928 46.2267 472.261 45.6133 473.008 44.76C473.754 43.9067 474.128 42.6 474.128 40.84C474.128 39.08 473.728 37.7467 472.928 36.84C472.128 35.9333 470.768 35.32 468.848 35C466.981 34.6267 464.234 34.44 460.608 34.44H449.568V47.08H460.608ZM540.486 48.36C560.753 48.2533 575.446 47.96 584.566 47.48C584.193 49.6667 583.953 51.9333 583.846 54.28C583.793 56.5733 583.766 59.48 583.766 63H521.606C522.033 52.6533 522.246 42.9733 522.246 33.96C522.246 24.9467 522.033 15.2667 521.606 4.92H583.766V19.4H540.486V27.08C543.046 27.1333 546.833 27.16 551.846 27.16C560.326 27.16 569.1 27 578.166 26.68V40.44C569.1 40.12 560.326 39.96 551.846 39.96C546.833 39.96 543.046 39.9867 540.486 40.04V48.36ZM626.597 5L625.237 49.88L644.677 5H674.117C673.744 14.0133 673.557 23.6667 673.557 33.96C673.557 44.3067 673.744 53.9867 674.117 63H653.557L654.997 19.32L635.637 63H606.997C607.424 52.6533 607.637 42.9733 607.637 33.96C607.637 25 607.424 15.3467 606.997 5H626.597ZM715.713 63.8C703.659 63.8 694.779 61.24 689.072 56.12C683.366 51 680.513 43.6933 680.513 34.2C680.513 24.6533 683.366 17.1067 689.072 11.56C694.779 6.01333 703.659 3.24 715.713 3.24C732.566 3.24 743.846 9.02666 749.553 20.6C744.753 22.2533 739.126 24.7333 732.673 28.04C731.126 25.0533 728.673 22.84 725.313 21.4C722.006 19.96 718.619 19.24 715.153 19.24C710.033 19.24 706.219 20.6 703.713 23.32C701.206 25.9867 699.953 29.2933 699.953 33.24C699.953 37.5067 701.286 41 703.953 43.72C706.673 46.3867 710.806 47.72 716.353 47.72C720.779 47.72 724.299 47 726.913 45.56C729.526 44.0667 731.446 41.72 732.673 38.52C737.046 40.8667 742.646 43.5067 749.473 46.44C746.806 52.8933 742.353 57.4 736.113 59.96C729.873 62.52 723.073 63.8 715.713 63.8ZM824.701 21.72C816.328 21.4533 808.195 21.2933 800.301 21.24V63H780.301V21.24C772.355 21.2933 764.248 21.4533 755.981 21.72V4.92H824.701V21.72ZM866.738 63.8C854.524 63.8 845.538 61.16 839.778 55.88C834.018 50.5467 831.138 43.08 831.138 33.48C831.138 23.9867 833.991 16.5733 839.697 11.24C845.458 5.90666 854.471 3.24 866.738 3.24C879.058 3.24 888.071 5.90666 893.778 11.24C899.538 16.5733 902.418 23.9867 902.418 33.48C902.418 43.1333 899.564 50.6 893.858 55.88C888.151 61.16 879.111 63.8 866.738 63.8ZM866.738 47.48C872.658 47.48 876.924 46.36 879.538 44.12C882.151 41.8267 883.458 38.28 883.458 33.48C883.458 28.7867 882.151 25.2933 879.538 23C876.924 20.7067 872.658 19.56 866.738 19.56C860.871 19.56 856.631 20.7067 854.018 23C851.404 25.2933 850.098 28.7867 850.098 33.48C850.098 38.2267 851.404 41.7467 854.018 44.04C856.631 46.3333 860.871 47.48 866.738 47.48ZM945.114 5C955.727 5 963.114 6.89333 967.274 10.68C971.434 14.4133 973.514 19.6933 973.514 26.52C973.514 31.2133 972.687 35.2133 971.034 38.52C969.38 41.7733 966.474 44.3333 962.314 46.2C958.154 48.0133 952.42 48.92 945.114 48.92H928.474V63H908.794C909.22 52.6533 909.434 42.9733 909.434 33.96C909.434 24.9467 909.22 15.2667 908.794 4.92H928.474V5H945.114ZM939.514 33.48C943.94 33.48 947.247 33.32 949.434 33C951.674 32.6267 953.22 31.9867 954.074 31.08C954.98 30.1733 955.434 28.84 955.434 27.08C955.434 25.32 955.007 24.0133 954.154 23.16C953.354 22.2533 951.834 21.64 949.594 21.32C947.407 21 944.047 20.84 939.514 20.84H928.474V33.48H939.514ZM999.488 5L998.128 49.88L1017.57 5H1047.01C1046.63 14.0133 1046.45 23.6667 1046.45 33.96C1046.45 44.3067 1046.63 53.9867 1047.01 63H1026.45L1027.89 19.32L1008.53 63H979.888C980.314 52.6533 980.528 42.9733 980.528 33.96C980.528 25 980.314 15.3467 979.888 5H999.488ZM1073 5L1071.64 49.88L1091.08 5H1120.52C1120.15 14.0133 1119.96 23.6667 1119.96 33.96C1119.96 44.3067 1120.15 53.9867 1120.52 63H1099.96L1101.4 19.32L1082.04 63H1053.4C1053.83 52.6533 1054.04 42.9733 1054.04 33.96C1054.04 25 1053.83 15.3467 1053.4 5H1073ZM1203.33 4.92C1203.12 5.50666 1202.85 6.17333 1202.53 6.92C1202.21 7.61333 1201.89 8.41333 1201.57 9.32C1198.64 16.5733 1195.92 23.1067 1193.41 28.92C1190.96 34.68 1188.03 41.24 1184.61 48.6C1181.63 55 1177.25 60.12 1171.49 63.96C1165.79 67.8533 1158.59 69.72 1149.89 69.56C1148.77 64.92 1147.87 61.4267 1147.17 59.08C1146.53 56.68 1145.65 54.2267 1144.53 51.72C1147.68 52.4133 1150.59 52.76 1153.25 52.76C1155.87 52.76 1158.21 52.4133 1160.29 51.72C1156.45 41.8533 1149.6 26.2533 1139.73 4.92H1159.65L1172.37 34.84L1174.61 29.48C1180.16 16.3067 1183.28 8.12 1183.97 4.92H1203.33ZM1242.74 63.8C1230.69 63.8 1221.81 61.24 1216.1 56.12C1210.4 51 1207.54 43.6933 1207.54 34.2C1207.54 24.6533 1210.4 17.1067 1216.1 11.56C1221.81 6.01333 1230.69 3.24 1242.74 3.24C1259.6 3.24 1270.88 9.02666 1276.58 20.6C1271.78 22.2533 1266.16 24.7333 1259.7 28.04C1258.16 25.0533 1255.7 22.84 1252.34 21.4C1249.04 19.96 1245.65 19.24 1242.18 19.24C1237.06 19.24 1233.25 20.6 1230.74 23.32C1228.24 25.9867 1226.98 29.2933 1226.98 33.24C1226.98 37.5067 1228.32 41 1230.98 43.72C1233.7 46.3867 1237.84 47.72 1243.38 47.72C1247.81 47.72 1251.33 47 1253.94 45.56C1256.56 44.0667 1258.48 41.72 1259.7 38.52C1264.08 40.8667 1269.68 43.5067 1276.5 46.44C1273.84 52.8933 1269.38 57.4 1263.14 59.96C1256.9 62.52 1250.1 63.8 1242.74 63.8ZM1347.65 4.92C1347.28 13.9333 1347.09 23.6133 1347.09 33.96C1347.09 44.3067 1347.28 53.9867 1347.65 63H1328.85V21.08H1301.81V63H1283.01C1283.44 52.6533 1283.65 42.9733 1283.65 33.96C1283.65 24.9467 1283.44 15.2667 1283.01 4.92H1347.65ZM1372.91 48.36C1393.17 48.2533 1407.87 47.96 1416.99 47.48C1416.61 49.6667 1416.37 51.9333 1416.27 54.28C1416.21 56.5733 1416.19 59.48 1416.19 63H1354.03C1354.45 52.6533 1354.67 42.9733 1354.67 33.96C1354.67 24.9467 1354.45 15.2667 1354.03 4.92H1416.19V19.4H1372.91V27.08C1375.47 27.1333 1379.25 27.16 1384.27 27.16C1392.75 27.16 1401.52 27 1410.59 26.68V40.44C1401.52 40.12 1392.75 39.96 1384.27 39.96C1379.25 39.96 1375.47 39.9867 1372.91 40.04V48.36ZM1466.2 33.24L1489.56 63H1466.44L1454.92 47.32L1443.32 63H1420.2L1443.56 33.24L1421 4.92H1444.12L1454.92 19.32L1465.64 4.92H1488.76L1466.2 33.24ZM1544.27 63C1543.26 59.96 1541.9 56.1467 1540.19 51.56H1514.67L1510.67 63H1490.59L1512.99 4.92H1542.43L1564.99 63H1544.27ZM1535.63 39.08C1533.61 33.48 1531.53 27.88 1529.39 22.28L1527.47 17.08C1525.61 21.9333 1522.86 29.2667 1519.23 39.08H1535.63Z" fill="url(#paint0_linear_512_2)"/>
<path d="M47.08 150.12C59.24 150.12 65.32 153.987 65.32 161.72C65.32 165.347 64.4933 168.44 62.84 171C61.1867 173.507 58.2267 175.48 53.96 176.92C49.6933 178.307 43.7733 179 36.2 179H0.2C0.626667 168.653 0.84 158.973 0.84 149.96C0.84 140.947 0.626667 131.267 0.2 120.92H19V121H36.04C42.6533 121 47.8533 121.56 51.64 122.68C55.48 123.747 58.1733 125.32 59.72 127.4C61.32 129.48 62.12 132.12 62.12 135.32C62.12 138.573 60.9733 141.48 58.68 144.04C56.44 146.547 52.5733 148.573 47.08 150.12ZM19 135.56V143H34.36C37.6667 143 39.96 142.707 41.24 142.12C42.5733 141.533 43.24 140.467 43.24 138.92C43.24 137.693 42.5467 136.84 41.16 136.36C39.8267 135.827 37.56 135.56 34.36 135.56H19ZM34.36 164.36C37.1333 164.36 39.24 164.253 40.68 164.04C42.1733 163.773 43.24 163.347 43.88 162.76C44.52 162.12 44.84 161.267 44.84 160.2C44.84 158.813 44.0667 157.827 42.52 157.24C41.0267 156.6 38.3067 156.28 34.36 156.28H19V164.36H34.36ZM154.74 120.92C154.367 129.933 154.18 139.613 154.18 149.96C154.18 160.307 154.367 169.987 154.74 179H135.94V157.24H106.5V179H87.7C88.1267 168.653 88.34 158.973 88.34 149.96C88.34 140.947 88.1267 131.267 87.7 120.92H106.5V142.68H135.94V120.92H154.74ZM211.618 179C210.604 175.96 209.244 172.147 207.538 167.56H182.018L178.018 179H157.938L180.338 120.92H209.778L232.338 179H211.618ZM202.978 155.08C200.951 149.48 198.871 143.88 196.738 138.28L194.818 133.08C192.951 137.933 190.204 145.267 186.578 155.08H202.978ZM309.246 120.92C308.873 129.933 308.686 139.613 308.686 149.96C308.686 160.307 308.873 169.987 309.246 179H236.606C237.033 168.653 237.246 158.973 237.246 149.96C237.246 140.947 237.033 131.267 236.606 120.92H255.406V162.84H264.686V120.92H282.046V162.84H290.446V120.92H309.246ZM334.549 164.36C354.815 164.253 369.509 163.96 378.629 163.48C378.255 165.667 378.015 167.933 377.909 170.28C377.855 172.573 377.829 175.48 377.829 179H315.669C316.095 168.653 316.309 158.973 316.309 149.96C316.309 140.947 316.095 131.267 315.669 120.92H377.829V135.4H334.549V143.08C337.109 143.133 340.895 143.16 345.909 143.16C354.389 143.16 363.162 143 372.229 142.68V156.44C363.162 156.12 354.389 155.96 345.909 155.96C340.895 155.96 337.109 155.987 334.549 156.04V164.36ZM418.564 118.84C416.057 118.84 413.737 118.28 411.604 117.16C409.524 116.04 407.87 114.44 406.644 112.36C405.417 110.28 404.804 107.853 404.804 105.08H412.724C412.724 107.16 413.257 108.707 414.324 109.72C415.444 110.68 416.857 111.16 418.564 111.16C420.27 111.16 421.657 110.68 422.724 109.72C423.844 108.707 424.404 107.16 424.404 105.08H432.324C432.324 107.853 431.71 110.28 430.484 112.36C429.257 114.44 427.577 116.04 425.444 117.16C423.364 118.28 421.07 118.84 418.564 118.84ZM404.644 121L403.284 165.88L422.724 121H452.164C451.79 130.013 451.604 139.667 451.604 149.96C451.604 160.307 451.79 169.987 452.164 179H431.604L433.044 135.32L413.684 179H385.044C385.47 168.653 385.684 158.973 385.684 149.96C385.684 141 385.47 131.347 385.044 121H404.644ZM526.095 151.24C529.242 153.8 531.642 156.653 533.295 159.8C535.002 162.893 536.655 166.707 538.255 171.24C539.588 174.92 540.655 177.507 541.455 179H517.935C517.615 178.093 517.188 176.52 516.655 174.28C516.122 171.827 515.535 169.773 514.895 168.12C514.308 166.467 513.455 165.027 512.335 163.8C510.522 161.88 508.255 160.653 505.535 160.12C502.868 159.533 499.188 159.24 494.495 159.24V179H474.575C475.002 168.653 475.215 158.973 475.215 149.96C475.215 140.947 475.002 131.267 474.575 120.92H494.495V141.8C495.028 141.853 495.828 141.88 496.895 141.88C505.215 133.667 511.402 126.68 515.455 120.92H541.375L516.495 145.72C520.015 147.107 523.215 148.947 526.095 151.24ZM583.456 179.8C571.243 179.8 562.256 177.16 556.496 171.88C550.736 166.547 547.856 159.08 547.856 149.48C547.856 139.987 550.71 132.573 556.416 127.24C562.176 121.907 571.19 119.24 583.456 119.24C595.776 119.24 604.79 121.907 610.496 127.24C616.256 132.573 619.136 139.987 619.136 149.48C619.136 159.133 616.283 166.6 610.576 171.88C604.87 177.16 595.83 179.8 583.456 179.8ZM583.456 163.48C589.376 163.48 593.643 162.36 596.256 160.12C598.87 157.827 600.176 154.28 600.176 149.48C600.176 144.787 598.87 141.293 596.256 139C593.643 136.707 589.376 135.56 583.456 135.56C577.59 135.56 573.35 136.707 570.736 139C568.123 141.293 566.816 144.787 566.816 149.48C566.816 154.227 568.123 157.747 570.736 160.04C573.35 162.333 577.59 163.48 583.456 163.48ZM700.313 120.92L706.553 179H685.833L684.553 137.56L676.553 179H655.593L647.433 137.88L646.233 179H625.513L631.753 120.92H658.953L665.913 158.76L671.993 120.92H700.313ZM763.414 179C762.401 175.96 761.041 172.147 759.334 167.56H733.814L729.814 179H709.734L732.134 120.92H761.574L784.134 179H763.414ZM754.774 155.08C752.748 149.48 750.668 143.88 748.534 138.28L746.614 133.08C744.748 137.933 742.001 145.267 738.374 155.08H754.774ZM855.443 120.92C855.07 129.933 854.883 139.613 854.883 149.96C854.883 160.307 855.07 169.987 855.443 179H836.643V157.24H807.203V179H788.403C788.83 168.653 789.043 158.973 789.043 149.96C789.043 140.947 788.83 131.267 788.403 120.92H807.203V142.68H836.643V120.92H855.443ZM928.961 164.76H932.241V192.2H913.281V180.6H877.601V192.44H858.641V164.76H862.641C864.934 164.333 866.694 163.4 867.921 161.96C869.147 160.52 870.054 158.227 870.641 155.08C871.121 152.467 871.361 146.52 871.361 137.24L871.281 120.92L928.961 121V164.76ZM889.281 161.32C888.961 162.813 888.667 163.96 888.401 164.76H908.721V136.6H890.801L890.721 141.24C890.721 145.293 890.614 148.867 890.401 151.96C890.241 155 889.867 158.12 889.281 161.32ZM957.518 164.36C977.784 164.253 992.478 163.96 1001.6 163.48C1001.22 165.667 1000.98 167.933 1000.88 170.28C1000.82 172.573 1000.8 175.48 1000.8 179H938.638C939.064 168.653 939.278 158.973 939.278 149.96C939.278 140.947 939.064 131.267 938.638 120.92H1000.8V135.4H957.518V143.08C960.078 143.133 963.864 143.16 968.878 143.16C977.358 143.16 986.131 143 995.198 142.68V156.44C986.131 156.12 977.358 155.96 968.878 155.96C963.864 155.96 960.078 155.987 957.518 156.04V164.36Z" fill="black"/>
<defs>
<linearGradient id="paint0_linear_512_2" x1="841.194" y1="-30" x2="854.55" y2="201.579" gradientUnits="userSpaceOnUse">
<stop stop-color="#92D7C7"/>
<stop offset="1" stop-color="#1A5043"/>
</linearGradient>
</defs>
</svg>
