<svg width="1124" height="186" viewBox="0 0 1124 186" fill="none" xmlns="http://www.w3.org/2000/svg">
<path d="M39.52 5C50.1333 5 57.52 6.89333 61.68 10.68C65.84 14.4133 67.92 19.6933 67.92 26.52C67.92 31.2133 67.0933 35.2133 65.44 38.52C63.7867 41.7733 60.88 44.3333 56.72 46.2C52.56 48.0133 46.8267 48.92 39.52 48.92H22.88V63H3.2C3.62667 52.6533 3.84 42.9733 3.84 33.96C3.84 24.9467 3.62667 15.2667 3.2 4.92H22.88V5H39.52ZM33.92 33.48C38.3467 33.48 41.6533 33.32 43.84 33C46.08 32.6267 47.6267 31.9867 48.48 31.08C49.3867 30.1733 49.84 28.84 49.84 27.08C49.84 25.32 49.4133 24.0133 48.56 23.16C47.76 22.2533 46.24 21.64 44 21.32C41.8133 21 38.4533 20.84 33.92 20.84H22.88V33.48H33.92ZM93.1738 48.36C113.44 48.2533 128.134 47.96 137.254 47.48C136.88 49.6667 136.64 51.9333 136.534 54.28C136.48 56.5733 136.454 59.48 136.454 63H74.2938C74.7204 52.6533 74.9338 42.9733 74.9338 33.96C74.9338 24.9467 74.7204 15.2667 74.2938 4.92H136.454V19.4H93.1738V27.08C95.7338 27.1333 99.5204 27.16 104.534 27.16C113.014 27.16 121.787 27 130.854 26.68V40.44C121.787 40.12 113.014 39.96 104.534 39.96C99.5204 39.96 95.7338 39.9867 93.1738 40.04V48.36ZM194.149 63C193.135 59.96 191.775 56.1467 190.069 51.56H164.549L160.549 63H140.469L162.869 4.92H192.309L214.869 63H194.149ZM185.509 39.08C183.482 33.48 181.402 27.88 179.269 22.28L177.349 17.08C175.482 21.9333 172.735 29.2667 169.109 39.08H185.509ZM285.138 63H264.898V20.6H246.978L246.898 25.24C246.898 29.2933 246.791 32.8667 246.578 35.96C246.418 39 246.044 42.12 245.458 45.32C244.391 51.1333 241.671 55.8 237.298 59.32C232.978 62.84 226.924 64.6 219.138 64.6V49C221.218 48.5733 222.844 47.64 224.018 46.2C225.244 44.7067 226.178 42.3333 226.818 39.08C227.298 36.4667 227.538 30.52 227.538 21.24L227.458 4.92L285.138 5V63ZM325.479 19C332.786 19 338.519 19.9333 342.679 21.8C346.839 23.6133 349.746 26.1733 351.399 29.48C353.053 32.7333 353.879 36.7067 353.879 41.4C353.879 48.2267 351.799 53.5333 347.639 57.32C343.479 61.0533 336.093 62.92 325.479 62.92H311.239V63H291.559C291.986 52.6533 292.199 42.9733 292.199 33.96C292.199 24.9467 291.986 15.2667 291.559 4.92H311.239V19H325.479ZM322.279 47.08C326.013 47.08 328.813 46.92 330.679 46.6C332.599 46.2267 333.933 45.6133 334.679 44.76C335.426 43.9067 335.799 42.6 335.799 40.84C335.799 39.08 335.399 37.7467 334.599 36.84C333.799 35.9333 332.439 35.32 330.519 35C328.653 34.6267 325.906 34.44 322.279 34.44H311.239V47.08H322.279ZM426.49 4.92C426.117 13.9333 425.93 23.6133 425.93 33.96C425.93 44.3067 426.117 53.9867 426.49 63H407.69V41.24H378.25V63H359.45C359.877 52.6533 360.09 42.9733 360.09 33.96C360.09 24.9467 359.877 15.2667 359.45 4.92H378.25V26.68H407.69V4.92H426.49ZM518.088 31C518.034 34.2 518.008 39.1067 518.008 45.72C518.008 53.6667 518.061 59.4267 518.168 63H499.288L499.368 53.96C499.474 44.04 499.528 36.3867 499.528 31C499.528 25.88 499.474 18.6267 499.368 9.24L499.288 0.599998H518.168C518.114 2.30666 518.088 4.97333 518.088 8.6V23.56V31ZM466.808 19C474.114 19 479.848 19.9333 484.008 21.8C488.168 23.6133 491.074 26.1733 492.728 29.48C494.381 32.7333 495.208 36.7067 495.208 41.4C495.208 48.2267 493.128 53.5333 488.968 57.32C484.808 61.0533 477.421 62.92 466.808 62.92H452.568V63H432.888C433.314 52.6533 433.528 42.9733 433.528 33.96C433.528 24.9467 433.314 15.2667 432.888 4.92H452.568V19H466.808ZM463.608 47.08C467.341 47.08 470.141 46.92 472.008 46.6C473.928 46.2267 475.261 45.6133 476.008 44.76C476.754 43.9067 477.128 42.6 477.128 40.84C477.128 39.08 476.728 37.7467 475.928 36.84C475.128 35.9333 473.768 35.32 471.848 35C469.981 34.6267 467.234 34.44 463.608 34.44H452.568V47.08H463.608ZM543.486 48.36C563.753 48.2533 578.446 47.96 587.566 47.48C587.193 49.6667 586.953 51.9333 586.846 54.28C586.793 56.5733 586.766 59.48 586.766 63H524.606C525.033 52.6533 525.246 42.9733 525.246 33.96C525.246 24.9467 525.033 15.2667 524.606 4.92H586.766V19.4H543.486V27.08C546.046 27.1333 549.833 27.16 554.846 27.16C563.326 27.16 572.1 27 581.166 26.68V40.44C572.1 40.12 563.326 39.96 554.846 39.96C549.833 39.96 546.046 39.9867 543.486 40.04V48.36ZM629.597 5L628.237 49.88L647.677 5H677.117C676.744 14.0133 676.557 23.6667 676.557 33.96C676.557 44.3067 676.744 53.9867 677.117 63H656.557L657.997 19.32L638.637 63H609.997C610.424 52.6533 610.637 42.9733 610.637 33.96C610.637 25 610.424 15.3467 609.997 5H629.597ZM718.713 63.8C706.659 63.8 697.779 61.24 692.072 56.12C686.366 51 683.513 43.6933 683.513 34.2C683.513 24.6533 686.366 17.1067 692.072 11.56C697.779 6.01333 706.659 3.24 718.713 3.24C735.566 3.24 746.846 9.02666 752.553 20.6C747.753 22.2533 742.126 24.7333 735.673 28.04C734.126 25.0533 731.673 22.84 728.313 21.4C725.006 19.96 721.619 19.24 718.153 19.24C713.033 19.24 709.219 20.6 706.713 23.32C704.206 25.9867 702.953 29.2933 702.953 33.24C702.953 37.5067 704.286 41 706.953 43.72C709.673 46.3867 713.806 47.72 719.353 47.72C723.779 47.72 727.299 47 729.913 45.56C732.526 44.0667 734.446 41.72 735.673 38.52C740.046 40.8667 745.646 43.5067 752.473 46.44C749.806 52.8933 745.353 57.4 739.113 59.96C732.873 62.52 726.073 63.8 718.713 63.8ZM827.701 21.72C819.328 21.4533 811.195 21.2933 803.301 21.24V63H783.301V21.24C775.355 21.2933 767.248 21.4533 758.981 21.72V4.92H827.701V21.72ZM869.738 63.8C857.524 63.8 848.538 61.16 842.778 55.88C837.018 50.5467 834.138 43.08 834.138 33.48C834.138 23.9867 836.991 16.5733 842.697 11.24C848.458 5.90666 857.471 3.24 869.738 3.24C882.058 3.24 891.071 5.90666 896.778 11.24C902.538 16.5733 905.418 23.9867 905.418 33.48C905.418 43.1333 902.564 50.6 896.858 55.88C891.151 61.16 882.111 63.8 869.738 63.8ZM869.738 47.48C875.658 47.48 879.924 46.36 882.538 44.12C885.151 41.8267 886.458 38.28 886.458 33.48C886.458 28.7867 885.151 25.2933 882.538 23C879.924 20.7067 875.658 19.56 869.738 19.56C863.871 19.56 859.631 20.7067 857.018 23C854.404 25.2933 853.098 28.7867 853.098 33.48C853.098 38.2267 854.404 41.7467 857.018 44.04C859.631 46.3333 863.871 47.48 869.738 47.48ZM948.114 5C958.727 5 966.114 6.89333 970.274 10.68C974.434 14.4133 976.514 19.6933 976.514 26.52C976.514 31.2133 975.687 35.2133 974.034 38.52C972.38 41.7733 969.474 44.3333 965.314 46.2C961.154 48.0133 955.42 48.92 948.114 48.92H931.474V63H911.794C912.22 52.6533 912.434 42.9733 912.434 33.96C912.434 24.9467 912.22 15.2667 911.794 4.92H931.474V5H948.114ZM942.514 33.48C946.94 33.48 950.247 33.32 952.434 33C954.674 32.6267 956.22 31.9867 957.074 31.08C957.98 30.1733 958.434 28.84 958.434 27.08C958.434 25.32 958.007 24.0133 957.154 23.16C956.354 22.2533 954.834 21.64 952.594 21.32C950.407 21 947.047 20.84 942.514 20.84H931.474V33.48H942.514ZM1002.49 5L1001.13 49.88L1020.57 5H1050.01C1049.63 14.0133 1049.45 23.6667 1049.45 33.96C1049.45 44.3067 1049.63 53.9867 1050.01 63H1029.45L1030.89 19.32L1011.53 63H982.888C983.314 52.6533 983.528 42.9733 983.528 33.96C983.528 25 983.314 15.3467 982.888 5H1002.49ZM1076 5L1074.64 49.88L1094.08 5H1123.52C1123.15 14.0133 1122.96 23.6667 1122.96 33.96C1122.96 44.3067 1123.15 53.9867 1123.52 63H1102.96L1104.4 19.32L1085.04 63H1056.4C1056.83 52.6533 1057.04 42.9733 1057.04 33.96C1057.04 25 1056.83 15.3467 1056.4 5H1076Z" fill="url(#paint0_linear_518_2)"/>
<path d="M63.6 120.92C63.3867 121.507 63.12 122.173 62.8 122.92C62.48 123.613 62.16 124.413 61.84 125.32C58.9067 132.573 56.1867 139.107 53.68 144.92C51.2267 150.68 48.2933 157.24 44.88 164.6C41.8933 171 37.52 176.12 31.76 179.96C26.0533 183.853 18.8533 185.72 10.16 185.56C9.04 180.92 8.13333 177.427 7.44 175.08C6.8 172.68 5.92 170.227 4.8 167.72C7.94667 168.413 10.8533 168.76 13.52 168.76C16.1333 168.76 18.48 168.413 20.56 167.72C16.72 157.853 9.86667 142.253 0 120.92H19.92L32.64 150.84L34.88 145.48C40.4267 132.307 43.5467 124.12 44.24 120.92H63.6ZM103.009 179.8C90.956 179.8 82.076 177.24 76.3694 172.12C70.6627 167 67.8094 159.693 67.8094 150.2C67.8094 140.653 70.6627 133.107 76.3694 127.56C82.076 122.013 90.956 119.24 103.009 119.24C119.863 119.24 131.143 125.027 136.849 136.6C132.049 138.253 126.423 140.733 119.969 144.04C118.423 141.053 115.969 138.84 112.609 137.4C109.303 135.96 105.916 135.24 102.449 135.24C97.3294 135.24 93.516 136.6 91.0094 139.32C88.5027 141.987 87.2494 145.293 87.2494 149.24C87.2494 153.507 88.5827 157 91.2494 159.72C93.9694 162.387 98.1027 163.72 103.649 163.72C108.076 163.72 111.596 163 114.209 161.56C116.823 160.067 118.743 157.72 119.969 154.52C124.343 156.867 129.943 159.507 136.769 162.44C134.103 168.893 129.649 173.4 123.409 175.96C117.169 178.52 110.369 179.8 103.009 179.8ZM207.918 120.92C207.545 129.933 207.358 139.613 207.358 149.96C207.358 160.307 207.545 169.987 207.918 179H189.118V137.08H162.078V179H143.278C143.705 168.653 143.918 158.973 143.918 149.96C143.918 140.947 143.705 131.267 143.278 120.92H207.918ZM233.174 164.36C253.44 164.253 268.134 163.96 277.254 163.48C276.88 165.667 276.64 167.933 276.534 170.28C276.48 172.573 276.454 175.48 276.454 179H214.294C214.72 168.653 214.934 158.973 214.934 149.96C214.934 140.947 214.72 131.267 214.294 120.92H276.454V135.4H233.174V143.08C235.734 143.133 239.52 143.16 244.534 143.16C253.014 143.16 261.787 143 270.854 142.68V156.44C261.787 156.12 253.014 155.96 244.534 155.96C239.52 155.96 235.734 155.987 233.174 156.04V164.36ZM326.469 149.24L349.829 179H326.709L315.189 163.32L303.589 179H280.469L303.829 149.24L281.269 120.92H304.389L315.189 135.32L325.909 120.92H349.029L326.469 149.24ZM404.539 179C403.526 175.96 402.166 172.147 400.459 167.56H374.939L370.939 179H350.859L373.259 120.92H402.699L425.259 179H404.539ZM395.899 155.08C393.873 149.48 391.793 143.88 389.659 138.28L387.739 133.08C385.873 137.933 383.126 145.267 379.499 155.08H395.899Z" fill="black"/>
<defs>
<linearGradient id="paint0_linear_518_2" x1="605.992" y1="-30" x2="624.539" y2="200.859" gradientUnits="userSpaceOnUse">
<stop stop-color="#92D7C7"/>
<stop offset="1" stop-color="#1A5043"/>
</linearGradient>
</defs>
</svg>
