<svg width="154" height="40" viewBox="0 0 154 40" fill="none" xmlns="http://www.w3.org/2000/svg">
<rect x="113" width="41" height="15" rx="6" fill="#F5622C"/>
<path d="M121.765 11V5.24H119.515V4H125.505V5.24H123.255V11H121.765ZM126.512 11V4H131.392V5.24H128.012V6.8H131.092V8H128.012V9.76H131.392V11H126.512ZM132.101 11L134.701 4H136.191L138.801 11H137.221L136.681 9.57H134.091L133.561 11H132.101ZM134.551 8.33H136.231L135.391 5.9L134.551 8.33ZM139.706 11V4H141.196L143.326 7.94L145.446 4H146.896V11H145.396V6.55L143.736 9.6H142.846L141.196 6.55V11H139.706Z" fill="white"/>
<path d="M5.33395 1.79726H0V0H12.7312V1.79726H7.39728V15.3425H5.33395V1.79726ZM12.0787 3.72603H13.8786V5.91781C14.2737 5.14339 14.8225 4.55161 15.5249 4.14247C16.242 3.71873 17.0688 3.50685 18.0053 3.50685C19.4687 3.50685 20.6394 3.98904 21.5174 4.95343C22.3953 5.90319 22.8343 7.32055 22.8343 9.20548V9.64384C22.8343 10.6374 22.7173 11.5069 22.4831 12.2521C22.2491 12.9826 21.9198 13.5963 21.4954 14.0932C21.0711 14.5753 20.5589 14.9406 19.9589 15.189C19.3736 15.4374 18.7224 15.5616 18.0053 15.5616C17.0102 15.5616 16.1761 15.3425 15.503 14.9041C14.8445 14.4658 14.3469 13.9178 14.0103 13.2603V19.726H12.0787V3.72603ZM17.5663 13.8521C18.0346 13.8521 18.4736 13.7644 18.8833 13.589C19.2931 13.3991 19.6443 13.1288 19.9369 12.7781C20.2443 12.4274 20.4784 11.989 20.6394 11.463C20.815 10.937 20.9028 10.3306 20.9028 9.64384V9.20548C20.9028 8.57716 20.815 8.01462 20.6394 7.51781C20.4784 7.021 20.2443 6.60456 19.9369 6.26849C19.6443 5.91781 19.2931 5.6548 18.8833 5.47945C18.4736 5.30411 18.0346 5.21644 17.5663 5.21644C17.0395 5.21644 16.5566 5.30411 16.1176 5.47945C15.6786 5.64018 15.3054 5.87397 14.9981 6.18082C14.6908 6.47305 14.4494 6.82374 14.2737 7.23288C14.0981 7.64202 14.0103 8.08037 14.0103 8.54795V10.3014C14.0103 10.8274 14.0981 11.3096 14.2737 11.7479C14.4494 12.1863 14.6908 12.5589 14.9981 12.8658C15.3054 13.1726 15.6786 13.4137 16.1176 13.589C16.5566 13.7644 17.0395 13.8521 17.5663 13.8521ZM29.5345 15.5616C28.7882 15.5616 28.0783 15.4448 27.4053 15.211C26.7321 14.9772 26.1394 14.6192 25.6273 14.137C25.115 13.6402 24.7054 13.0192 24.3981 12.274C24.0908 11.5288 23.9371 10.6521 23.9371 9.64384V9.20548C23.9371 8.2411 24.0833 7.40822 24.3761 6.70685C24.6687 5.99086 25.0566 5.39908 25.5395 4.93151C26.0369 4.44932 26.6076 4.09133 27.2516 3.85754C27.9101 3.62374 28.5978 3.50685 29.315 3.50685C31.0271 3.50685 32.3514 3.97442 33.288 4.90959C34.2244 5.84476 34.6928 7.16712 34.6928 8.87671V10.1041H25.8688C25.8688 10.7909 25.9785 11.368 26.198 11.8356C26.4175 12.3032 26.7029 12.6831 27.0541 12.9753C27.4053 13.2676 27.7929 13.4795 28.2174 13.611C28.6565 13.7425 29.0955 13.8082 29.5345 13.8082C30.4125 13.8082 31.0855 13.6621 31.5539 13.3699C32.0368 13.0776 32.3806 12.6758 32.5856 12.1644H34.4733C34.3561 12.7196 34.1441 13.2091 33.8368 13.6329C33.5439 14.0566 33.1782 14.4146 32.7392 14.7069C32.3147 14.9845 31.8246 15.1963 31.2686 15.3425C30.727 15.4886 30.1491 15.5616 29.5345 15.5616ZM29.4247 5.26027C28.971 5.26027 28.532 5.32603 28.1077 5.45753C27.6832 5.57442 27.3028 5.77168 26.9663 6.04932C26.6443 6.31233 26.3809 6.6484 26.1761 7.05754C25.971 7.46667 25.8688 7.95617 25.8688 8.52603H32.8709C32.8562 7.92695 32.7537 7.42284 32.5636 7.0137C32.388 6.58996 32.1466 6.25387 31.8393 6.00548C31.532 5.74247 31.166 5.5525 30.7417 5.43562C30.3319 5.31873 29.8929 5.26027 29.4247 5.26027ZM36.5604 3.72603H38.492V8.56986H44.5064V3.72603H46.438V15.3425H44.5064V10.2795H38.492V15.3425H36.5604V3.72603ZM47.7627 13.6329H49.1895C49.3504 13.4137 49.4968 13.0776 49.6285 12.6247C49.7602 12.1717 49.8772 11.6384 49.9797 11.0247C50.082 10.411 50.1553 9.74613 50.1992 9.03014C50.2576 8.29955 50.287 7.55435 50.287 6.79452V3.72603H58.4087V13.6329H60.055V18.0822H58.2111V15.3425H49.6066V18.0822H47.7627V13.6329ZM56.477 13.6329V5.43562H52.1748V7.23288C52.1748 7.84658 52.1528 8.46028 52.1089 9.07397C52.065 9.67305 51.9992 10.2502 51.9114 10.8055C51.8236 11.3461 51.7138 11.8648 51.5821 12.3616C51.4649 12.8438 51.3259 13.2676 51.165 13.6329H56.477ZM1.31702 21.9178H4.60958V28.011H11.1947V21.9178H14.4873V37.2603H11.1947V30.7288H4.60958V37.2603H1.31702V21.9178ZM21.9453 37.5233C21.155 37.5233 20.4014 37.4065 19.6844 37.1726C18.982 36.9243 18.3673 36.5589 17.8405 36.0767C17.3137 35.5798 16.8967 34.9589 16.5894 34.2137C16.2821 33.4538 16.1284 32.5699 16.1284 31.5616V31.1233C16.1284 30.1589 16.2747 29.3188 16.5674 28.6027C16.8601 27.8867 17.2625 27.2949 17.7747 26.8274C18.2868 26.3452 18.8795 25.9873 19.5527 25.7534C20.2258 25.5051 20.9502 25.3808 21.7258 25.3808C23.555 25.3808 24.9451 25.863 25.8964 26.8274C26.8475 27.7918 27.3232 29.1873 27.3232 31.0137V32.2411H19.0917C19.1063 32.7524 19.1941 33.1982 19.3551 33.5781C19.5161 33.9435 19.7283 34.2428 19.9917 34.4767C20.2551 34.7106 20.555 34.8859 20.8916 35.0027C21.2428 35.1051 21.594 35.1562 21.9453 35.1562C22.6917 35.1562 23.2549 35.0466 23.6355 34.8274C24.0159 34.6082 24.2866 34.2867 24.4477 33.863H27.1037C26.8695 35.0757 26.2915 35.989 25.3696 36.6027C24.4477 37.2164 23.3063 37.5233 21.9453 37.5233ZM21.8355 27.7479C21.4989 27.7479 21.1624 27.7918 20.8258 27.8795C20.5038 27.9671 20.2185 28.1059 19.9697 28.2959C19.7209 28.4859 19.5161 28.7415 19.3551 29.063C19.1941 29.3845 19.1063 29.7716 19.0917 30.2247H24.5135C24.4988 29.7425 24.4183 29.3407 24.2721 29.0192C24.1404 28.6976 23.9501 28.4421 23.7014 28.2521C23.4672 28.062 23.1891 27.9305 22.8673 27.8575C22.5452 27.7846 22.2013 27.7479 21.8355 27.7479ZM27.4397 34.8493H28.7568C28.903 34.6301 29.0347 34.3161 29.1519 33.9068C29.2689 33.4832 29.3567 33.0155 29.4153 32.5041C29.4884 31.9781 29.5395 31.4301 29.5689 30.8603C29.6128 30.2757 29.6348 29.7059 29.6348 29.1507V25.6438H38.7442V34.8493H40.171V40H37.6247V37.2603H29.986V40H27.4397V34.8493ZM35.8467 34.8493V28.0548H32.2908V29.589C32.2908 30.1004 32.2761 30.6045 32.2469 31.1014C32.2175 31.5982 32.1736 32.0804 32.1152 32.5479C32.0713 33.001 32.0054 33.4247 31.9176 33.8192C31.8298 34.2137 31.7201 34.5572 31.5884 34.8493H35.8467ZM41.1587 25.6438H46.9975C47.7439 25.6438 48.3804 25.7243 48.9072 25.8849C49.4485 26.0311 49.895 26.2429 50.2462 26.5205C50.5974 26.7982 50.8534 27.127 51.0145 27.5069C51.1754 27.8867 51.2559 28.3031 51.2559 28.7562C51.2559 29.2969 51.0876 29.8082 50.7511 30.2904C50.429 30.7579 49.9828 31.0722 49.4121 31.2329C50.129 31.4082 50.6852 31.7442 51.0803 32.2411C51.4899 32.7233 51.6949 33.2931 51.6949 33.9507C51.6949 34.9589 51.3437 35.7626 50.6413 36.3616C49.9389 36.9607 48.8706 37.2603 47.4366 37.2603H41.1587V25.6438ZM46.8658 34.937C47.5244 34.937 48.0073 34.8421 48.3146 34.6521C48.6364 34.4476 48.7975 34.126 48.7975 33.6877C48.7975 33.2493 48.6438 32.9352 48.3365 32.7452C48.0437 32.5407 47.5536 32.4384 46.8658 32.4384H44.0562V34.937H46.8658ZM46.5805 30.2904C47.2535 30.2904 47.7144 30.1955 47.9634 30.0055C48.2268 29.8155 48.3585 29.5233 48.3585 29.1288C48.3585 28.7489 48.2268 28.464 47.9634 28.274C47.7 28.0695 47.239 27.9671 46.5805 27.9671H44.0562V30.2904H46.5805ZM52.9064 25.6438H55.8038V33.0959L60.9841 25.6438H63.6621V37.2603H60.7646V29.8082L55.5843 37.2603H52.9064V25.6438ZM68.5649 31.211L64.6577 25.6438H67.6869L70.8038 30.2027H71.6599V25.6438H74.5574V30.2027H75.4354L78.5743 25.6438H81.5595L77.6743 31.1452L81.779 37.2603H78.5304L75.4354 32.4822H74.5574V37.2603H71.6599V32.4822H70.7819L67.5991 37.2603H64.4382L68.5649 31.211ZM82.5541 25.6438H85.4516V33.0959L90.6319 25.6438H93.3098V37.2603H90.4124V29.8082L85.2321 37.2603H82.5541V25.6438ZM95.0735 25.6438H98.4978L101.724 31.9123L104.951 25.6438H108.244V37.2603H105.478V29.6986L102.646 34.9589H100.671L97.8393 29.6986V37.2603H95.0735V25.6438ZM115.262 37.5233C114.472 37.5233 113.718 37.4065 113.001 37.1726C112.299 36.9243 111.684 36.5517 111.157 36.0548C110.63 35.5579 110.213 34.937 109.906 34.1918C109.599 33.4466 109.445 32.5699 109.445 31.5616V31.1233C109.445 30.1736 109.599 29.3407 109.906 28.6247C110.213 27.9086 110.63 27.3096 111.157 26.8274C111.684 26.3452 112.299 25.9873 113.001 25.7534C113.718 25.5051 114.472 25.3808 115.262 25.3808C116.052 25.3808 116.798 25.5051 117.501 25.7534C118.203 25.9873 118.818 26.3452 119.345 26.8274C119.886 27.3096 120.311 27.9086 120.618 28.6247C120.925 29.3407 121.079 30.1736 121.079 31.1233V31.5616C121.079 32.5552 120.925 33.4247 120.618 34.1699C120.311 34.9151 119.886 35.536 119.345 36.0329C118.818 36.5298 118.203 36.9024 117.501 37.1507C116.798 37.399 116.052 37.5233 115.262 37.5233ZM115.262 35.0685C116.081 35.0685 116.762 34.7763 117.303 34.1918C117.859 33.6072 118.137 32.7305 118.137 31.5616V31.1233C118.137 30.0565 117.859 29.2456 117.303 28.6904C116.762 28.1205 116.081 27.8356 115.262 27.8356C114.428 27.8356 113.74 28.1205 113.199 28.6904C112.657 29.2456 112.386 30.0565 112.386 31.1233V31.5616C112.386 32.7452 112.657 33.6292 113.199 34.2137C113.74 34.7836 114.428 35.0685 115.262 35.0685ZM127.436 37.5233C126.631 37.5233 125.877 37.399 125.175 37.1507C124.487 36.9024 123.887 36.5298 123.375 36.0329C122.863 35.536 122.46 34.9151 122.168 34.1699C121.875 33.4247 121.729 32.5552 121.729 31.5616V31.1233C121.729 30.1881 121.882 29.3626 122.19 28.6466C122.497 27.9305 122.907 27.3315 123.419 26.8493C123.946 26.3671 124.553 26.0018 125.241 25.7534C125.929 25.5051 126.66 25.3808 127.436 25.3808C128.255 25.3808 128.98 25.4904 129.609 25.7096C130.253 25.9288 130.794 26.2284 131.233 26.6082C131.672 26.9881 132.016 27.4339 132.265 27.9452C132.514 28.4566 132.66 29.0045 132.704 29.589H129.763C129.645 29.0483 129.404 28.6247 129.038 28.3178C128.687 27.9963 128.153 27.8356 127.436 27.8356C127.055 27.8356 126.697 27.9014 126.36 28.0329C126.038 28.1644 125.746 28.3689 125.482 28.6466C125.233 28.9096 125.036 29.2456 124.89 29.6548C124.743 30.064 124.67 30.5534 124.67 31.1233V31.5616C124.67 32.1753 124.736 32.7086 124.868 33.1616C125.014 33.6 125.211 33.9654 125.46 34.2575C125.709 34.5352 126.002 34.7397 126.338 34.8712C126.675 35.0027 127.041 35.0685 127.436 35.0685C128.007 35.0685 128.497 34.9223 128.907 34.6301C129.331 34.3233 129.616 33.8849 129.763 33.3151H132.704C132.631 33.9579 132.448 34.5425 132.155 35.0685C131.877 35.5798 131.504 36.0182 131.036 36.3836C130.582 36.7489 130.048 37.0339 129.433 37.2384C128.819 37.4284 128.153 37.5233 127.436 37.5233ZM136.642 28.0548H132.933V25.6438H143.249V28.0548H139.54V37.2603H136.642V28.0548ZM144.122 25.6438H147.02V29.5452H149.5C152.5 29.5452 154 30.8311 154 33.4027C154 33.9726 153.912 34.4986 153.737 34.9808C153.576 35.4483 153.312 35.8503 152.946 36.1863C152.58 36.5223 152.112 36.7853 151.542 36.9753C150.971 37.1654 150.29 37.2603 149.5 37.2603H144.122V25.6438ZM149.171 34.937C149.873 34.937 150.371 34.8127 150.664 34.5644C150.956 34.3014 151.103 33.9141 151.103 33.4027C151.103 32.8914 150.949 32.5113 150.642 32.263C150.349 32 149.859 31.8685 149.171 31.8685H147.02V34.937H149.171Z" fill="black"/>
</svg>
