<svg width="1287" height="448" viewBox="0 0 1287 448" fill="none" xmlns="http://www.w3.org/2000/svg">
<path d="M71.92 51.72C63.5467 51.4533 55.4133 51.2933 47.52 51.24V93H27.52V51.24C19.5733 51.2933 11.4667 51.4533 3.2 51.72V34.92H71.92V51.72ZM114.676 35C125.29 35 132.676 36.8933 136.836 40.68C140.996 44.4133 143.076 49.6933 143.076 56.52C143.076 61.2133 142.25 65.2133 140.596 68.52C138.943 71.7733 136.036 74.3333 131.876 76.2C127.716 78.0133 121.983 78.92 114.676 78.92H98.0363V93H78.3563C78.7829 82.6533 78.9963 72.9733 78.9963 63.96C78.9963 54.9467 78.7829 45.2667 78.3563 34.92H98.0363V35H114.676ZM109.076 63.48C113.503 63.48 116.81 63.32 118.996 63C121.236 62.6267 122.783 61.9867 123.636 61.08C124.543 60.1733 124.996 58.84 124.996 57.08C124.996 55.32 124.57 54.0133 123.716 53.16C122.916 52.2533 121.396 51.64 119.156 51.32C116.97 51 113.61 50.84 109.076 50.84H98.0363V63.48H109.076ZM168.33 78.36C188.597 78.2533 203.29 77.96 212.41 77.48C212.037 79.6667 211.797 81.9333 211.69 84.28C211.637 86.5733 211.61 89.48 211.61 93H149.45C149.877 82.6533 150.09 72.9733 150.09 63.96C150.09 54.9467 149.877 45.2667 149.45 34.92H211.61V49.4H168.33V57.08C170.89 57.1333 174.677 57.16 179.69 57.16C188.17 57.16 196.943 57 206.01 56.68V70.44C196.943 70.12 188.17 69.96 179.69 69.96C174.677 69.96 170.89 69.9867 168.33 70.04V78.36ZM285.865 34.92C285.492 43.9333 285.305 53.6133 285.305 63.96C285.305 74.3067 285.492 83.9867 285.865 93H267.065V71.24H237.625V93H218.825C219.252 82.6533 219.465 72.9733 219.465 63.96C219.465 54.9467 219.252 45.2667 218.825 34.92H237.625V56.68H267.065V34.92H285.865ZM359.383 78.76H362.663V106.2H343.703V94.6H308.023V106.44H289.062V78.76H293.063C295.356 78.3333 297.116 77.4 298.343 75.96C299.569 74.52 300.476 72.2267 301.063 69.08C301.543 66.4667 301.783 60.52 301.783 51.24L301.703 34.92L359.383 35V78.76ZM319.703 75.32C319.383 76.8133 319.089 77.96 318.823 78.76H339.143V50.6H321.223L321.143 55.24C321.143 59.2933 321.036 62.8667 320.823 65.96C320.663 69 320.289 72.12 319.703 75.32ZM452.115 34.92C451.742 43.9333 451.555 53.6133 451.555 63.96C451.555 74.3067 451.742 83.9867 452.115 93H433.315V71.24H403.875V93H385.075C385.502 82.6533 385.715 72.9733 385.715 63.96C385.715 54.9467 385.502 45.2667 385.075 34.92H403.875V56.68H433.315V34.92H452.115ZM477.393 78.36C497.659 78.2533 512.353 77.96 521.473 77.48C521.099 79.6667 520.859 81.9333 520.753 84.28C520.699 86.5733 520.673 89.48 520.673 93H458.513C458.939 82.6533 459.153 72.9733 459.153 63.96C459.153 54.9467 458.939 45.2667 458.513 34.92H520.673V49.4H477.393V57.08C479.953 57.1333 483.739 57.16 488.753 57.16C497.233 57.16 506.006 57 515.073 56.68V70.44C506.006 70.12 497.233 69.96 488.753 69.96C483.739 69.96 479.953 69.9867 477.393 70.04V78.36ZM595.008 78.76H598.288V106.2H579.328V94.6H543.648V106.44H524.688V78.76H528.688C530.981 78.3333 532.741 77.4 533.968 75.96C535.194 74.52 536.101 72.2267 536.688 69.08C537.168 66.4667 537.408 60.52 537.408 51.24L537.328 34.92L595.008 35V78.76ZM555.328 75.32C555.008 76.8133 554.714 77.96 554.448 78.76H574.768V50.6H556.848L556.768 55.24C556.768 59.2933 556.661 62.8667 556.448 65.96C556.288 69 555.914 72.12 555.328 75.32ZM651.564 64.12C663.724 64.12 669.804 67.9867 669.804 75.72C669.804 79.3467 668.978 82.44 667.324 85C665.671 87.5067 662.711 89.48 658.444 90.92C654.178 92.3067 648.258 93 640.684 93H604.684C605.111 82.6533 605.324 72.9733 605.324 63.96C605.324 54.9467 605.111 45.2667 604.684 34.92H623.484V35H640.524C647.138 35 652.338 35.56 656.124 36.68C659.964 37.7467 662.658 39.32 664.204 41.4C665.804 43.48 666.604 46.12 666.604 49.32C666.604 52.5733 665.458 55.48 663.164 58.04C660.924 60.5467 657.058 62.5733 651.564 64.12ZM623.484 49.56V57H638.844C642.151 57 644.444 56.7067 645.724 56.12C647.058 55.5333 647.724 54.4667 647.724 52.92C647.724 51.6933 647.031 50.84 645.644 50.36C644.311 49.8267 642.044 49.56 638.844 49.56H623.484ZM638.844 78.36C641.618 78.36 643.724 78.2533 645.164 78.04C646.658 77.7733 647.724 77.3467 648.364 76.76C649.004 76.12 649.324 75.2667 649.324 74.2C649.324 72.8133 648.551 71.8267 647.004 71.24C645.511 70.6 642.791 70.28 638.844 70.28H623.484V78.36H638.844ZM695.769 35L694.409 79.88L713.849 35H743.289C742.915 44.0133 742.729 53.6667 742.729 63.96C742.729 74.3067 742.915 83.9867 743.289 93H722.729L724.169 49.32L704.809 93H676.169C676.595 82.6533 676.809 72.9733 676.809 63.96C676.809 55 676.595 45.3467 676.169 35H695.769ZM808.724 60.28C810.964 61.6133 813.044 63.2667 814.964 65.24C817.364 67.8 819.204 70.6533 820.484 73.8C821.764 76.8933 823.018 80.7067 824.244 85.24C825.098 88.7067 825.898 91.2933 826.644 93H807.124C806.964 92.52 806.644 90.9733 806.164 88.36C805.738 85.8533 805.284 83.7733 804.804 82.12C804.378 80.4667 803.738 79.0267 802.884 77.8C801.711 76.04 800.458 74.6533 799.124 73.64C797.791 72.6267 796.218 71.88 794.404 71.4C794.511 78.6 794.671 85.8 794.884 93H779.044C779.311 85.8533 779.471 78.7333 779.524 71.64C777.924 72.12 776.511 72.8667 775.284 73.88C774.111 74.8933 772.964 76.2 771.844 77.8C770.991 79.0267 770.324 80.4667 769.844 82.12C769.418 83.7733 768.991 85.8533 768.564 88.36C768.084 90.9733 767.764 92.52 767.604 93H748.084C748.831 91.2933 749.631 88.7067 750.484 85.24C751.711 80.7067 752.964 76.8933 754.244 73.8C755.524 70.6533 757.364 67.8 759.764 65.24C761.684 63.2667 763.764 61.6133 766.004 60.28L746.484 34.92H767.924C769.364 38.12 771.098 41.56 773.124 45.24C775.151 48.8667 777.258 52.28 779.444 55.48C779.444 49.4 779.311 42.5467 779.044 34.92H794.884C794.671 41.96 794.511 49 794.404 56.04C794.618 56.04 794.751 56.0667 794.804 56.12C797.044 52.8667 799.231 49.3733 801.364 45.64C803.498 41.8533 805.311 38.28 806.804 34.92H828.244L808.724 60.28ZM852.097 35L850.737 79.88L870.177 35H899.617C899.244 44.0133 899.057 53.6667 899.057 63.96C899.057 74.3067 899.244 83.9867 899.617 93H879.057L880.497 49.32L861.137 93H832.497C832.924 82.6533 833.137 72.9733 833.137 63.96C833.137 55 832.924 45.3467 832.497 35H852.097ZM980.813 34.92L987.053 93H966.333L965.053 51.56L957.053 93H936.093L927.933 51.88L926.733 93H906.013L912.253 34.92H939.453L946.413 72.76L952.493 34.92H980.813ZM1029.03 93.8C1016.82 93.8 1007.83 91.16 1002.07 85.88C996.314 80.5467 993.434 73.08 993.434 63.48C993.434 53.9867 996.288 46.5733 1001.99 41.24C1007.75 35.9067 1016.77 33.24 1029.03 33.24C1041.35 33.24 1050.37 35.9067 1056.07 41.24C1061.83 46.5733 1064.71 53.9867 1064.71 63.48C1064.71 73.1333 1061.86 80.6 1056.15 85.88C1050.45 91.16 1041.41 93.8 1029.03 93.8ZM1029.03 77.48C1034.95 77.48 1039.22 76.36 1041.83 74.12C1044.45 71.8267 1045.75 68.28 1045.75 63.48C1045.75 58.7867 1044.45 55.2933 1041.83 53C1039.22 50.7067 1034.95 49.56 1029.03 49.56C1023.17 49.56 1018.93 50.7067 1016.31 53C1013.7 55.2933 1012.39 58.7867 1012.39 63.48C1012.39 68.2267 1013.7 71.7467 1016.31 74.04C1018.93 76.3333 1023.17 77.48 1029.03 77.48ZM1106.29 93.8C1094.24 93.8 1085.36 91.24 1079.65 86.12C1073.94 81 1071.09 73.6933 1071.09 64.2C1071.09 54.6533 1073.94 47.1067 1079.65 41.56C1085.36 36.0133 1094.24 33.24 1106.29 33.24C1123.14 33.24 1134.42 39.0267 1140.13 50.6C1135.33 52.2533 1129.7 54.7333 1123.25 58.04C1121.7 55.0533 1119.25 52.84 1115.89 51.4C1112.58 49.96 1109.2 49.24 1105.73 49.24C1100.61 49.24 1096.8 50.6 1094.29 53.32C1091.78 55.9867 1090.53 59.2933 1090.53 63.24C1090.53 67.5067 1091.86 71 1094.53 73.72C1097.25 76.3867 1101.38 77.72 1106.93 77.72C1111.36 77.72 1114.88 77 1117.49 75.56C1120.1 74.0667 1122.02 71.72 1123.25 68.52C1127.62 70.8667 1133.22 73.5067 1140.05 76.44C1137.38 82.8933 1132.93 87.4 1126.69 89.96C1120.45 92.52 1113.65 93.8 1106.29 93.8ZM1215.28 51.72C1206.91 51.4533 1198.77 51.2933 1190.88 51.24V93H1170.88V51.24C1162.93 51.2933 1154.83 51.4533 1146.56 51.72V34.92H1215.28V51.72ZM1255.64 49C1262.94 49 1268.68 49.9333 1272.84 51.8C1277 53.6133 1279.9 56.1733 1281.56 59.48C1283.21 62.7333 1284.04 66.7067 1284.04 71.4C1284.04 78.2267 1281.96 83.5333 1277.8 87.32C1273.64 91.0533 1266.25 92.92 1255.64 92.92H1241.4V93H1221.72C1222.14 82.6533 1222.36 72.9733 1222.36 63.96C1222.36 54.9467 1222.14 45.2667 1221.72 34.92H1241.4V49H1255.64ZM1252.44 77.08C1256.17 77.08 1258.97 76.92 1260.84 76.6C1262.76 76.2267 1264.09 75.6133 1264.84 74.76C1265.58 73.9067 1265.96 72.6 1265.96 70.84C1265.96 69.08 1265.56 67.7467 1264.76 66.84C1263.96 65.9333 1262.6 65.32 1260.68 65C1258.81 64.6267 1256.06 64.44 1252.44 64.44H1241.4V77.08H1252.44ZM71.92 167.72C63.5467 167.453 55.4133 167.293 47.52 167.24V209H27.52V167.24C19.5733 167.293 11.4667 167.453 3.2 167.72V150.92H71.92V167.72ZM113.956 209.8C101.743 209.8 92.7563 207.16 86.9963 201.88C81.2363 196.547 78.3563 189.08 78.3563 179.48C78.3563 169.987 81.2096 162.573 86.9162 157.24C92.6763 151.907 101.69 149.24 113.956 149.24C126.276 149.24 135.29 151.907 140.996 157.24C146.756 162.573 149.636 169.987 149.636 179.48C149.636 189.133 146.783 196.6 141.076 201.88C135.37 207.16 126.33 209.8 113.956 209.8ZM113.956 193.48C119.876 193.48 124.143 192.36 126.756 190.12C129.37 187.827 130.676 184.28 130.676 179.48C130.676 174.787 129.37 171.293 126.756 169C124.143 166.707 119.876 165.56 113.956 165.56C108.09 165.56 103.85 166.707 101.236 169C98.6229 171.293 97.3163 174.787 97.3163 179.48C97.3163 184.227 98.6229 187.747 101.236 190.04C103.85 192.333 108.09 193.48 113.956 193.48ZM220.653 150.92C220.279 159.933 220.093 169.613 220.093 179.96C220.093 190.307 220.279 199.987 220.653 209H201.853V167.08H174.813V209H156.013C156.439 198.653 156.653 188.973 156.653 179.96C156.653 170.947 156.439 161.267 156.013 150.92H220.653ZM260.628 189.56H226.228V173.96H260.628V189.56ZM310.887 179.56C312.807 179.187 314.7 179 316.567 179C319.82 179 322.46 179.56 324.487 180.68C326.567 181.747 328.06 183.133 328.967 184.84C329.874 186.493 330.327 188.227 330.327 190.04C330.327 194.253 328.94 197.853 326.167 200.84C323.394 203.773 319.634 206.013 314.887 207.56C310.14 209.053 304.86 209.8 299.047 209.8C282.194 209.8 271.287 203.933 266.327 192.2L270.807 191.08C274.114 190.28 276.914 189.533 279.207 188.84C281.554 188.093 283.607 187.267 285.367 186.36C286.434 189.027 287.954 190.947 289.927 192.12C291.954 193.24 294.727 193.8 298.247 193.8C301.98 193.8 305.02 193.373 307.367 192.52C309.714 191.667 310.887 190.387 310.887 188.68C310.887 187.773 310.434 187.08 309.527 186.6C308.62 186.12 307.18 185.8 305.207 185.64C303.234 185.427 300.46 185.32 296.887 185.32H290.807V171.32H294.487C298.54 171.32 301.847 171.16 304.407 170.84C306.967 170.467 308.247 169.693 308.247 168.52C308.247 167.187 307.554 166.12 306.167 165.32C304.834 164.467 302.727 164.04 299.847 164.04C296.114 164.04 293.074 164.813 290.727 166.36C288.434 167.907 286.647 170.147 285.367 173.08C279.66 170.787 273.58 169.16 267.127 168.2C269.687 162.44 273.607 157.987 278.887 154.84C284.22 151.693 291.074 150.12 299.447 150.12C304.887 150.12 309.767 150.84 314.087 152.28C318.46 153.667 321.874 155.613 324.327 158.12C326.834 160.627 328.087 163.427 328.087 166.52C328.087 168.333 327.66 169.96 326.807 171.4C325.954 172.787 324.274 174.173 321.767 175.56C319.26 176.893 315.634 178.227 310.887 179.56ZM403.211 209C402.198 205.96 400.838 202.147 399.131 197.56H373.611L369.611 209H349.531L371.931 150.92H401.371L423.931 209H403.211ZM394.571 185.08C392.545 179.48 390.465 173.88 388.331 168.28L386.411 163.08C384.545 167.933 381.798 175.267 378.171 185.08H394.571ZM447.72 209H428.2C428.627 198.6 428.84 188.92 428.84 179.96C428.84 170.947 428.627 161.267 428.2 150.92H484.84C484.733 155.293 484.68 158.627 484.68 160.92C484.68 163.747 484.707 165.88 484.76 167.32H447.72V209ZM510.127 194.36C530.394 194.253 545.087 193.96 554.207 193.48C553.834 195.667 553.594 197.933 553.487 200.28C553.434 202.573 553.407 205.48 553.407 209H491.247C491.674 198.653 491.887 188.973 491.887 179.96C491.887 170.947 491.674 161.267 491.247 150.92H553.407V165.4H510.127V173.08C512.687 173.133 516.474 173.16 521.487 173.16C529.967 173.16 538.74 173 547.807 172.68V186.44C538.74 186.12 529.967 185.96 521.487 185.96C516.474 185.96 512.687 185.987 510.127 186.04V194.36ZM627.662 150.92C627.289 159.933 627.102 169.613 627.102 179.96C627.102 190.307 627.289 199.987 627.662 209H608.862V187.24H579.422V209H560.622C561.049 198.653 561.262 188.973 561.262 179.96C561.262 170.947 561.049 161.267 560.622 150.92H579.422V172.68H608.862V150.92H627.662ZM702.779 167.72C694.406 167.453 686.273 167.293 678.379 167.24V209H658.379V167.24C650.433 167.293 642.326 167.453 634.059 167.72V150.92H702.779V167.72ZM744.416 209.8C732.362 209.8 723.482 207.24 717.776 202.12C712.069 197 709.216 189.693 709.216 180.2C709.216 170.653 712.069 163.107 717.776 157.56C723.482 152.013 732.362 149.24 744.416 149.24C761.269 149.24 772.549 155.027 778.256 166.6C773.456 168.253 767.829 170.733 761.376 174.04C759.829 171.053 757.376 168.84 754.016 167.4C750.709 165.96 747.322 165.24 743.856 165.24C738.736 165.24 734.922 166.6 732.416 169.32C729.909 171.987 728.656 175.293 728.656 179.24C728.656 183.507 729.989 187 732.656 189.72C735.376 192.387 739.509 193.72 745.056 193.72C749.482 193.72 753.002 193 755.616 191.56C758.229 190.067 760.149 187.72 761.376 184.52C765.749 186.867 771.349 189.507 778.176 192.44C775.509 198.893 771.056 203.4 764.816 205.96C758.576 208.52 751.776 209.8 744.416 209.8ZM853.404 167.72C845.031 167.453 836.898 167.293 829.004 167.24V209H809.004V167.24C801.058 167.293 792.951 167.453 784.684 167.72V150.92H853.404V167.72ZM906.721 180.12C918.881 180.12 924.961 183.987 924.961 191.72C924.961 195.347 924.134 198.44 922.481 201C920.827 203.507 917.867 205.48 913.601 206.92C909.334 208.307 903.414 209 895.841 209H859.841C860.267 198.653 860.481 188.973 860.481 179.96C860.481 170.947 860.267 161.267 859.841 150.92H878.641V151H895.681C902.294 151 907.494 151.56 911.281 152.68C915.121 153.747 917.814 155.32 919.361 157.4C920.961 159.48 921.761 162.12 921.761 165.32C921.761 168.573 920.614 171.48 918.321 174.04C916.081 176.547 912.214 178.573 906.721 180.12ZM878.641 165.56V173H894.001C897.307 173 899.601 172.707 900.881 172.12C902.214 171.533 902.881 170.467 902.881 168.92C902.881 167.693 902.187 166.84 900.801 166.36C899.467 165.827 897.201 165.56 894.001 165.56H878.641ZM894.001 194.36C896.774 194.36 898.881 194.253 900.321 194.04C901.814 193.773 902.881 193.347 903.521 192.76C904.161 192.12 904.481 191.267 904.481 190.2C904.481 188.813 903.707 187.827 902.161 187.24C900.667 186.6 897.947 186.28 894.001 186.28H878.641V194.36H894.001Z" fill="black"/>
<path d="M1078.76 441C1077.74 437.96 1076.38 434.147 1074.68 429.56H1049.16L1045.16 441H1025.08L1047.48 382.92H1076.92L1099.48 441H1078.76ZM1070.12 417.08C1068.09 411.48 1066.01 405.88 1063.88 400.28L1061.96 395.08C1060.09 399.933 1057.34 407.267 1053.72 417.08H1070.12Z" fill="url(#paint0_linear_500_558)"/>
<path d="M984.751 441H965.231C965.658 430.6 965.871 420.92 965.871 411.96C965.871 402.947 965.658 393.267 965.231 382.92H1021.87C1021.76 387.293 1021.71 390.627 1021.71 392.92C1021.71 395.747 1021.74 397.88 1021.79 399.32H984.751V441Z" fill="url(#paint1_linear_500_558)"/>
<path d="M930.458 383C941.071 383 948.458 384.893 952.618 388.68C956.778 392.413 958.858 397.693 958.858 404.52C958.858 409.213 958.031 413.213 956.378 416.52C954.724 419.773 951.818 422.333 947.658 424.2C943.498 426.013 937.764 426.92 930.458 426.92H913.818V441H894.138C894.564 430.653 894.778 420.973 894.778 411.96C894.778 402.947 894.564 393.267 894.138 382.92H913.818V383H930.458ZM924.858 411.48C929.284 411.48 932.591 411.32 934.778 411C937.018 410.627 938.564 409.987 939.418 409.08C940.324 408.173 940.778 406.84 940.778 405.08C940.778 403.32 940.351 402.013 939.498 401.16C938.698 400.253 937.178 399.64 934.938 399.32C932.751 399 929.391 398.84 924.858 398.84H913.818V411.48H924.858Z" fill="url(#paint2_linear_500_558)"/>
<path d="M889.928 382.92C889.715 383.507 889.448 384.173 889.128 384.92C888.808 385.613 888.488 386.413 888.168 387.32C885.235 394.573 882.515 401.107 880.008 406.92C877.555 412.68 874.621 419.24 871.208 426.6C868.221 433 863.848 438.12 858.088 441.96C852.381 445.853 845.181 447.72 836.488 447.56C835.368 442.92 834.461 439.427 833.768 437.08C833.128 434.68 832.248 432.227 831.128 429.72C834.275 430.413 837.181 430.76 839.848 430.76C842.461 430.76 844.808 430.413 846.888 429.72C843.048 419.853 836.195 404.253 826.328 382.92H846.248L858.968 412.84L861.208 407.48C866.755 394.307 869.875 386.12 870.568 382.92H889.928Z" fill="url(#paint3_linear_500_558)"/>
<path d="M805.167 404.76C812.474 404.76 818.207 405.533 822.367 407.08C826.527 408.573 829.434 410.653 831.087 413.32C832.74 415.987 833.567 419.267 833.567 423.16C833.567 428.813 831.487 433.187 827.327 436.28C823.167 439.373 815.78 440.92 805.167 440.92H790.927V441H771.247C771.674 430.653 771.887 420.973 771.887 411.96C771.887 402.947 771.674 393.267 771.247 382.92H830.207V399H790.927V404.76H805.167ZM801.967 427.08C805.647 427.08 808.42 426.947 810.287 426.68C812.207 426.413 813.54 425.987 814.287 425.4C815.087 424.813 815.487 423.933 815.487 422.76C815.487 421.587 815.087 420.68 814.287 420.04C813.487 419.4 812.127 418.947 810.207 418.68C808.287 418.413 805.54 418.28 801.967 418.28H790.927V427.08H801.967Z" fill="url(#paint4_linear_500_558)"/>
<path d="M736.473 383C747.087 383 754.473 384.893 758.633 388.68C762.793 392.413 764.873 397.693 764.873 404.52C764.873 409.213 764.047 413.213 762.393 416.52C760.74 419.773 757.833 422.333 753.673 424.2C749.513 426.013 743.78 426.92 736.473 426.92H719.833V441H700.153C700.58 430.653 700.793 420.973 700.793 411.96C700.793 402.947 700.58 393.267 700.153 382.92H719.833V383H736.473ZM730.873 411.48C735.3 411.48 738.607 411.32 740.793 411C743.033 410.627 744.58 409.987 745.433 409.08C746.34 408.173 746.793 406.84 746.793 405.08C746.793 403.32 746.367 402.013 745.513 401.16C744.713 400.253 743.193 399.64 740.953 399.32C738.767 399 735.407 398.84 730.873 398.84H719.833V411.48H730.873Z" fill="url(#paint5_linear_500_558)"/>
<path d="M649.658 426.36C669.925 426.253 684.618 425.96 693.738 425.48C693.365 427.667 693.125 429.933 693.018 432.28C692.965 434.573 692.938 437.48 692.938 441H630.778C631.205 430.653 631.418 420.973 631.418 411.96C631.418 402.947 631.205 393.267 630.778 382.92H692.938V397.4H649.658V405.08C652.218 405.133 656.005 405.16 661.018 405.16C669.498 405.16 678.272 405 687.338 404.68V418.44C678.272 418.12 669.498 417.96 661.018 417.96C656.005 417.96 652.218 417.987 649.658 418.04V426.36Z" fill="url(#paint6_linear_500_558)"/>
<path d="M624.342 399.72C615.969 399.453 607.835 399.293 599.942 399.24V441H579.942V399.24C571.995 399.293 563.889 399.453 555.622 399.72V382.92H624.342V399.72Z" fill="url(#paint7_linear_500_558)"/>
<path d="M505.127 426.36C525.394 426.253 540.087 425.96 549.207 425.48C548.834 427.667 548.594 429.933 548.487 432.28C548.434 434.573 548.407 437.48 548.407 441H486.247C486.674 430.653 486.887 420.973 486.887 411.96C486.887 402.947 486.674 393.267 486.247 382.92H548.407V397.4H505.127V405.08C507.687 405.133 511.474 405.16 516.487 405.16C524.967 405.16 533.74 405 542.807 404.68V418.44C533.74 418.12 524.967 417.96 516.487 417.96C511.474 417.96 507.687 417.987 505.127 418.04V426.36Z" fill="url(#paint8_linear_500_558)"/>
<path d="M479.871 382.92C479.498 391.933 479.311 401.613 479.311 411.96C479.311 422.307 479.498 431.987 479.871 441H461.071V399.08H434.031V441H415.231C415.658 430.653 415.871 420.973 415.871 411.96C415.871 402.947 415.658 393.267 415.231 382.92H479.871Z" fill="url(#paint9_linear_500_558)"/>
<path d="M409.613 421.56H375.213V405.96H409.613V421.56Z" fill="url(#paint10_linear_500_558)"/>
<path d="M369.576 399.72C361.203 399.453 353.07 399.293 345.176 399.24V441H325.176V399.24C317.23 399.293 309.123 399.453 300.856 399.72V382.92H369.576V399.72Z" fill="url(#paint11_linear_500_558)"/>
<path d="M279.095 413.24C282.242 415.8 284.642 418.653 286.295 421.8C288.002 424.893 289.655 428.707 291.255 433.24C292.589 436.92 293.655 439.507 294.455 441H270.935C270.615 440.093 270.189 438.52 269.655 436.28C269.122 433.827 268.535 431.773 267.895 430.12C267.309 428.467 266.455 427.027 265.335 425.8C263.522 423.88 261.255 422.653 258.535 422.12C255.869 421.533 252.189 421.24 247.495 421.24V441H227.575C228.002 430.653 228.215 420.973 228.215 411.96C228.215 402.947 228.002 393.267 227.575 382.92H247.495V403.8C248.029 403.853 248.829 403.88 249.895 403.88C258.215 395.667 264.402 388.68 268.455 382.92H294.375L269.495 407.72C273.015 409.107 276.215 410.947 279.095 413.24Z" fill="url(#paint12_linear_500_558)"/>
<path d="M221.178 382.92C220.804 391.933 220.618 401.613 220.618 411.96C220.618 422.307 220.804 431.987 221.178 441H202.378V419.24H172.938V441H154.138C154.564 430.653 154.778 420.973 154.778 411.96C154.778 402.947 154.564 393.267 154.138 382.92H172.938V404.68H202.378V382.92H221.178Z" fill="url(#paint13_linear_500_558)"/>
<path d="M129.149 441C128.135 437.96 126.775 434.147 125.069 429.56H99.5488L95.5488 441H75.4688L97.8688 382.92H127.309L149.869 441H129.149ZM120.509 417.08C118.482 411.48 116.402 405.88 114.269 400.28L112.349 395.08C110.482 399.933 107.735 407.267 104.109 417.08H120.509Z" fill="url(#paint14_linear_500_558)"/>
<path d="M38.4002 441.8C26.3469 441.8 17.4669 439.24 11.7602 434.12C6.05353 429 3.2002 421.693 3.2002 412.2C3.2002 402.653 6.05353 395.107 11.7602 389.56C17.4669 384.013 26.3469 381.24 38.4002 381.24C55.2535 381.24 66.5335 387.027 72.2402 398.6C67.4402 400.253 61.8135 402.733 55.3602 406.04C53.8135 403.053 51.3602 400.84 48.0002 399.4C44.6935 397.96 41.3069 397.24 37.8402 397.24C32.7202 397.24 28.9069 398.6 26.4002 401.32C23.8935 403.987 22.6402 407.293 22.6402 411.24C22.6402 415.507 23.9735 419 26.6402 421.72C29.3602 424.387 33.4935 425.72 39.0402 425.72C43.4669 425.72 46.9869 425 49.6002 423.56C52.2135 422.067 54.1335 419.72 55.3602 416.52C59.7335 418.867 65.3335 421.507 72.1602 424.44C69.4935 430.893 65.0402 435.4 58.8002 437.96C52.5602 440.52 45.7602 441.8 38.4002 441.8Z" fill="url(#paint15_linear_500_558)"/>
<path d="M859.441 267L858.081 311.88L877.521 267H906.961C906.587 276.013 906.401 285.667 906.401 295.96C906.401 306.307 906.587 315.987 906.961 325H886.401L887.841 281.32L868.481 325H839.841C840.267 314.653 840.481 304.973 840.481 295.96C840.481 287 840.267 277.347 839.841 267H859.441Z" fill="url(#paint16_linear_500_558)"/>
<path d="M833.405 283.72C825.031 283.453 816.898 283.293 809.005 283.24V325H789.005V283.24C781.058 283.293 772.951 283.453 764.685 283.72V266.92H833.405V283.72Z" fill="url(#paint17_linear_500_558)"/>
<path d="M724.416 325.8C712.362 325.8 703.482 323.24 697.776 318.12C692.069 313 689.216 305.693 689.216 296.2C689.216 286.653 692.069 279.107 697.776 273.56C703.482 268.013 712.362 265.24 724.416 265.24C741.269 265.24 752.549 271.027 758.256 282.6C753.456 284.253 747.829 286.733 741.376 290.04C739.829 287.053 737.376 284.84 734.016 283.4C730.709 281.96 727.323 281.24 723.856 281.24C718.736 281.24 714.922 282.6 712.416 285.32C709.909 287.987 708.656 291.293 708.656 295.24C708.656 299.507 709.989 303 712.656 305.72C715.376 308.387 719.509 309.72 725.056 309.72C729.482 309.72 733.002 309 735.616 307.56C738.229 306.067 740.149 303.72 741.376 300.52C745.749 302.867 751.349 305.507 758.176 308.44C755.509 314.893 751.056 319.4 744.816 321.96C738.576 324.52 731.776 325.8 724.416 325.8Z" fill="url(#paint18_linear_500_558)"/>
<path d="M647.16 325.8C634.946 325.8 625.96 323.16 620.2 317.88C614.44 312.547 611.56 305.08 611.56 295.48C611.56 285.987 614.413 278.573 620.12 273.24C625.88 267.907 634.893 265.24 647.16 265.24C659.48 265.24 668.493 267.907 674.2 273.24C679.96 278.573 682.84 285.987 682.84 295.48C682.84 305.133 679.986 312.6 674.28 317.88C668.573 323.16 659.533 325.8 647.16 325.8ZM647.16 309.48C653.08 309.48 657.346 308.36 659.96 306.12C662.573 303.827 663.88 300.28 663.88 295.48C663.88 290.787 662.573 287.293 659.96 285C657.346 282.707 653.08 281.56 647.16 281.56C641.293 281.56 637.053 282.707 634.44 285C631.826 287.293 630.52 290.787 630.52 295.48C630.52 300.227 631.826 303.747 634.44 306.04C637.053 308.333 641.293 309.48 647.16 309.48Z" fill="url(#paint19_linear_500_558)"/>
<path d="M598.938 266.92L605.178 325H584.458L583.178 283.56L575.178 325H554.218L546.058 283.88L544.858 325H524.138L530.378 266.92H557.578L564.538 304.76L570.618 266.92H598.938Z" fill="url(#paint20_linear_500_558)"/>
<path d="M470.222 267L468.862 311.88L488.302 267H517.742C517.369 276.013 517.182 285.667 517.182 295.96C517.182 306.307 517.369 315.987 517.742 325H497.182L498.622 281.32L479.262 325H450.622C451.049 314.653 451.262 304.973 451.262 295.96C451.262 287 451.049 277.347 450.622 267H470.222Z" fill="url(#paint21_linear_500_558)"/>
<path d="M426.849 292.28C429.089 293.613 431.169 295.267 433.089 297.24C435.489 299.8 437.329 302.653 438.609 305.8C439.889 308.893 441.143 312.707 442.369 317.24C443.223 320.707 444.023 323.293 444.769 325H425.249C425.089 324.52 424.769 322.973 424.289 320.36C423.863 317.853 423.409 315.773 422.929 314.12C422.503 312.467 421.863 311.027 421.009 309.8C419.836 308.04 418.583 306.653 417.249 305.64C415.916 304.627 414.343 303.88 412.529 303.4C412.636 310.6 412.796 317.8 413.009 325H397.169C397.436 317.853 397.596 310.733 397.649 303.64C396.049 304.12 394.636 304.867 393.409 305.88C392.236 306.893 391.089 308.2 389.969 309.8C389.116 311.027 388.449 312.467 387.969 314.12C387.543 315.773 387.116 317.853 386.689 320.36C386.209 322.973 385.889 324.52 385.729 325H366.209C366.956 323.293 367.756 320.707 368.609 317.24C369.836 312.707 371.089 308.893 372.369 305.8C373.649 302.653 375.489 299.8 377.889 297.24C379.809 295.267 381.889 293.613 384.129 292.28L364.609 266.92H386.049C387.489 270.12 389.223 273.56 391.249 277.24C393.276 280.867 395.383 284.28 397.569 287.48C397.569 281.4 397.436 274.547 397.169 266.92H413.009C412.796 273.96 412.636 281 412.529 288.04C412.743 288.04 412.876 288.067 412.929 288.12C415.169 284.867 417.356 281.373 419.489 277.64C421.623 273.853 423.436 270.28 424.929 266.92H446.369L426.849 292.28Z" fill="url(#paint22_linear_500_558)"/>
<path d="M313.894 267L312.534 311.88L331.974 267H361.414C361.041 276.013 360.854 285.667 360.854 295.96C360.854 306.307 361.041 315.987 361.414 325H340.854L342.294 281.32L322.934 325H294.294C294.721 314.653 294.934 304.973 294.934 295.96C294.934 287 294.721 277.347 294.294 267H313.894Z" fill="url(#paint23_linear_500_558)"/>
<path d="M269.69 296.12C281.85 296.12 287.93 299.987 287.93 307.72C287.93 311.347 287.103 314.44 285.45 317C283.796 319.507 280.836 321.48 276.57 322.92C272.303 324.307 266.383 325 258.81 325H222.81C223.236 314.653 223.45 304.973 223.45 295.96C223.45 286.947 223.236 277.267 222.81 266.92H241.61V267H258.65C265.263 267 270.463 267.56 274.25 268.68C278.09 269.747 280.783 271.32 282.33 273.4C283.93 275.48 284.73 278.12 284.73 281.32C284.73 284.573 283.583 287.48 281.29 290.04C279.05 292.547 275.183 294.573 269.69 296.12ZM241.61 281.56V289H256.97C260.276 289 262.57 288.707 263.85 288.12C265.183 287.533 265.85 286.467 265.85 284.92C265.85 283.693 265.156 282.84 263.77 282.36C262.436 281.827 260.17 281.56 256.97 281.56H241.61ZM256.97 310.36C259.743 310.36 261.85 310.253 263.29 310.04C264.783 309.773 265.85 309.347 266.49 308.76C267.13 308.12 267.45 307.267 267.45 306.2C267.45 304.813 266.676 303.827 265.13 303.24C263.636 302.6 260.916 302.28 256.97 302.28H241.61V310.36H256.97Z" fill="url(#paint24_linear_500_558)"/>
<path d="M213.133 310.76H216.413V338.2H197.452V326.6H161.773V338.44H142.812V310.76H146.812C149.106 310.333 150.866 309.4 152.092 307.96C153.319 306.52 154.226 304.227 154.812 301.08C155.293 298.467 155.533 292.52 155.533 283.24L155.452 266.92L213.133 267V310.76ZM173.452 307.32C173.132 308.813 172.839 309.96 172.572 310.76H192.893V282.6H174.973L174.893 287.24C174.893 291.293 174.786 294.867 174.572 297.96C174.412 301 174.039 304.12 173.452 307.32Z" fill="url(#paint25_linear_500_558)"/>
<path d="M95.5177 310.36C115.784 310.253 130.478 309.96 139.598 309.48C139.224 311.667 138.984 313.933 138.878 316.28C138.824 318.573 138.798 321.48 138.798 325H76.6377C77.0644 314.653 77.2777 304.973 77.2777 295.96C77.2777 286.947 77.0644 277.267 76.6377 266.92H138.798V281.4H95.5177V289.08C98.0777 289.133 101.864 289.16 106.878 289.16C115.358 289.16 124.131 289 133.198 288.68V302.44C124.131 302.12 115.358 301.96 106.878 301.96C101.864 301.96 98.0777 301.987 95.5177 302.04V310.36Z" fill="url(#paint26_linear_500_558)"/>
<path d="M70.2402 266.92C69.8669 275.933 69.6802 285.613 69.6802 295.96C69.6802 306.307 69.8669 315.987 70.2402 325H51.4402V303.24H22.0002V325H3.2002C3.62686 314.653 3.8402 304.973 3.8402 295.96C3.8402 286.947 3.62686 277.267 3.2002 266.92H22.0002V288.68H51.4402V266.92H70.2402Z" fill="url(#paint27_linear_500_558)"/>
<defs>
<linearGradient id="paint0_linear_500_558" x1="1056.62" y1="381.569" x2="1063.26" y2="437.196" gradientUnits="userSpaceOnUse">
<stop stop-color="#92D7C7"/>
<stop offset="1" stop-color="#21826B"/>
</linearGradient>
<linearGradient id="paint1_linear_500_558" x1="989.246" y1="381.569" x2="997.877" y2="436.635" gradientUnits="userSpaceOnUse">
<stop stop-color="#92D7C7"/>
<stop offset="1" stop-color="#21826B"/>
</linearGradient>
<linearGradient id="paint2_linear_500_558" x1="921.578" y1="381.569" x2="929.174" y2="436.946" gradientUnits="userSpaceOnUse">
<stop stop-color="#92D7C7"/>
<stop offset="1" stop-color="#21826B"/>
</linearGradient>
<linearGradient id="paint3_linear_500_558" x1="853.293" y1="381.417" x2="862.821" y2="442.736" gradientUnits="userSpaceOnUse">
<stop stop-color="#92D7C7"/>
<stop offset="1" stop-color="#21826B"/>
</linearGradient>
<linearGradient id="paint4_linear_500_558" x1="797.67" y1="381.569" x2="805.547" y2="436.866" gradientUnits="userSpaceOnUse">
<stop stop-color="#92D7C7"/>
<stop offset="1" stop-color="#21826B"/>
</linearGradient>
<linearGradient id="paint5_linear_500_558" x1="727.593" y1="381.569" x2="735.19" y2="436.946" gradientUnits="userSpaceOnUse">
<stop stop-color="#92D7C7"/>
<stop offset="1" stop-color="#21826B"/>
</linearGradient>
<linearGradient id="paint6_linear_500_558" x1="657.472" y1="381.569" x2="665.273" y2="436.888" gradientUnits="userSpaceOnUse">
<stop stop-color="#92D7C7"/>
<stop offset="1" stop-color="#21826B"/>
</linearGradient>
<linearGradient id="paint7_linear_500_558" x1="584.758" y1="381.569" x2="591.927" y2="437.062" gradientUnits="userSpaceOnUse">
<stop stop-color="#92D7C7"/>
<stop offset="1" stop-color="#21826B"/>
</linearGradient>
<linearGradient id="paint8_linear_500_558" x1="512.941" y1="381.569" x2="520.742" y2="436.888" gradientUnits="userSpaceOnUse">
<stop stop-color="#92D7C7"/>
<stop offset="1" stop-color="#21826B"/>
</linearGradient>
<linearGradient id="paint9_linear_500_558" x1="442.637" y1="381.569" x2="450.243" y2="436.943" gradientUnits="userSpaceOnUse">
<stop stop-color="#92D7C7"/>
<stop offset="1" stop-color="#21826B"/>
</linearGradient>
<linearGradient id="paint10_linear_500_558" x1="389.798" y1="405.597" x2="390.843" y2="420.679" gradientUnits="userSpaceOnUse">
<stop stop-color="#92D7C7"/>
<stop offset="1" stop-color="#21826B"/>
</linearGradient>
<linearGradient id="paint11_linear_500_558" x1="329.992" y1="381.569" x2="337.162" y2="437.062" gradientUnits="userSpaceOnUse">
<stop stop-color="#92D7C7"/>
<stop offset="1" stop-color="#21826B"/>
</linearGradient>
<linearGradient id="paint12_linear_500_558" x1="255.931" y1="381.569" x2="263.291" y2="437.011" gradientUnits="userSpaceOnUse">
<stop stop-color="#92D7C7"/>
<stop offset="1" stop-color="#21826B"/>
</linearGradient>
<linearGradient id="paint13_linear_500_558" x1="182.561" y1="381.569" x2="189.904" y2="437.016" gradientUnits="userSpaceOnUse">
<stop stop-color="#92D7C7"/>
<stop offset="1" stop-color="#21826B"/>
</linearGradient>
<linearGradient id="paint14_linear_500_558" x1="107.013" y1="381.569" x2="113.651" y2="437.196" gradientUnits="userSpaceOnUse">
<stop stop-color="#92D7C7"/>
<stop offset="1" stop-color="#21826B"/>
</linearGradient>
<linearGradient id="paint15_linear_500_558" x1="32.4718" y1="379.832" x2="40.2205" y2="437.621" gradientUnits="userSpaceOnUse">
<stop stop-color="#92D7C7"/>
<stop offset="1" stop-color="#21826B"/>
</linearGradient>
<linearGradient id="paint16_linear_500_558" x1="868.298" y1="265.651" x2="875.613" y2="321.026" gradientUnits="userSpaceOnUse">
<stop stop-color="#92D7C7"/>
<stop offset="1" stop-color="#21826B"/>
</linearGradient>
<linearGradient id="paint17_linear_500_558" x1="793.82" y1="265.569" x2="800.99" y2="321.062" gradientUnits="userSpaceOnUse">
<stop stop-color="#92D7C7"/>
<stop offset="1" stop-color="#21826B"/>
</linearGradient>
<linearGradient id="paint18_linear_500_558" x1="718.487" y1="263.832" x2="726.236" y2="321.621" gradientUnits="userSpaceOnUse">
<stop stop-color="#92D7C7"/>
<stop offset="1" stop-color="#21826B"/>
</linearGradient>
<linearGradient id="paint19_linear_500_558" x1="641.781" y1="263.832" x2="649.294" y2="321.684" gradientUnits="userSpaceOnUse">
<stop stop-color="#92D7C7"/>
<stop offset="1" stop-color="#21826B"/>
</linearGradient>
<linearGradient id="paint20_linear_500_558" x1="558.497" y1="265.569" x2="564.605" y2="321.319" gradientUnits="userSpaceOnUse">
<stop stop-color="#92D7C7"/>
<stop offset="1" stop-color="#21826B"/>
</linearGradient>
<linearGradient id="paint21_linear_500_558" x1="479.08" y1="265.651" x2="486.394" y2="321.026" gradientUnits="userSpaceOnUse">
<stop stop-color="#92D7C7"/>
<stop offset="1" stop-color="#21826B"/>
</linearGradient>
<linearGradient id="paint22_linear_500_558" x1="399.274" y1="265.569" x2="405.329" y2="321.331" gradientUnits="userSpaceOnUse">
<stop stop-color="#92D7C7"/>
<stop offset="1" stop-color="#21826B"/>
</linearGradient>
<linearGradient id="paint23_linear_500_558" x1="322.751" y1="265.651" x2="330.066" y2="321.026" gradientUnits="userSpaceOnUse">
<stop stop-color="#92D7C7"/>
<stop offset="1" stop-color="#21826B"/>
</linearGradient>
<linearGradient id="paint24_linear_500_558" x1="250.419" y1="265.569" x2="257.971" y2="320.959" gradientUnits="userSpaceOnUse">
<stop stop-color="#92D7C7"/>
<stop offset="1" stop-color="#21826B"/>
</linearGradient>
<linearGradient id="paint25_linear_500_558" x1="174.017" y1="265.257" x2="184.115" y2="333.231" gradientUnits="userSpaceOnUse">
<stop stop-color="#92D7C7"/>
<stop offset="1" stop-color="#21826B"/>
</linearGradient>
<linearGradient id="paint26_linear_500_558" x1="103.331" y1="265.569" x2="111.132" y2="320.888" gradientUnits="userSpaceOnUse">
<stop stop-color="#92D7C7"/>
<stop offset="1" stop-color="#21826B"/>
</linearGradient>
<linearGradient id="paint27_linear_500_558" x1="31.6238" y1="265.569" x2="38.9667" y2="321.016" gradientUnits="userSpaceOnUse">
<stop stop-color="#92D7C7"/>
<stop offset="1" stop-color="#21826B"/>
</linearGradient>
</defs>
</svg>
