<svg width="100" height="100" viewBox="0 0 100 100" fill="none" xmlns="http://www.w3.org/2000/svg">
<path fill-rule="evenodd" clip-rule="evenodd" d="M50 100C77.6142 100 100 77.6142 100 50C100 22.3858 77.6142 0 50 0C22.3858 0 0 22.3858 0 50C0 77.6142 22.3858 100 50 100ZM39.0763 63.8071L61.5658 63.1196C62.9458 63.0774 64.0304 61.9244 63.9882 60.5443C63.946 59.1643 62.793 58.0797 61.413 58.1219L44.9562 58.625L62.7463 39.7129C63.6923 38.7072 63.6439 37.1251 62.6382 36.179C61.6325 35.233 60.0504 35.2814 59.1043 36.2871L41.3143 55.1992L40.8112 38.7424C40.769 37.3623 39.616 36.2778 38.2359 36.32C36.8559 36.3621 35.7713 37.5151 35.8135 38.8952L36.501 61.3847C36.5432 62.7647 37.6962 63.8493 39.0763 63.8071Z" fill="white"/>
</svg>
