<svg width="52" height="52" viewBox="0 0 52 52" fill="none" xmlns="http://www.w3.org/2000/svg">
<rect x="0.5" y="0.5" width="51" height="51" rx="25.5" stroke="#202020"/>
<path d="M18.4697 32.4697C18.1768 32.7626 18.1768 33.2374 18.4697 33.5303C18.7626 33.8232 19.2374 33.8232 19.5303 33.5303L18.4697 32.4697ZM33.8921 18.8579C33.8921 18.4437 33.5563 18.1079 33.1421 18.1079L26.3921 18.1079C25.9779 18.1079 25.6421 18.4437 25.6421 18.8579C25.6421 19.2721 25.9779 19.6079 26.3921 19.6079L32.3921 19.6079L32.3921 25.6079C32.3921 26.0221 32.7279 26.3579 33.1421 26.3579C33.5563 26.3579 33.8921 26.0221 33.8921 25.6079L33.8921 18.8579ZM19.5303 33.5303L33.6725 19.3882L32.6118 18.3275L18.4697 32.4697L19.5303 33.5303Z" fill="#202020"/>
</svg>
