<svg width="52" height="52" viewBox="0 0 52 52" fill="none" xmlns="http://www.w3.org/2000/svg">
<rect x="0.5" y="0.5" width="51" height="51" rx="25.5" stroke="white"/>
<path d="M32.421 18.1675C32.6586 17.8282 32.5761 17.3605 32.2368 17.1229C31.8975 16.8854 31.4299 16.9678 31.1923 17.3071L32.421 18.1675ZM19.5965 34.2506C19.6684 34.6585 20.0574 34.9309 20.4653 34.859L27.1128 33.6868C27.5207 33.6149 27.7931 33.2259 27.7212 32.818C27.6492 32.4101 27.2602 32.1377 26.8523 32.2096L20.9435 33.2515L19.9016 27.3427C19.8297 26.9347 19.4407 26.6624 19.0328 26.7343C18.6248 26.8062 18.3525 27.1952 18.4244 27.6031L19.5965 34.2506ZM31.1923 17.3071L19.7207 33.6902L20.9495 34.5505L32.421 18.1675L31.1923 17.3071Z" fill="white"/>
</svg>
