<svg width="20" height="18" viewBox="0 0 20 18" fill="none" xmlns="http://www.w3.org/2000/svg">
<path fill-rule="evenodd" clip-rule="evenodd" d="M10 2.51025C8.07718 2.51025 6.23311 3.24226 4.87348 4.54525C3.51384 5.84824 2.75 7.61547 2.75 9.45817C2.75 11.3009 3.51384 13.0681 4.87348 14.3711C6.23311 15.6741 8.07718 16.4061 10 16.4061C11.9228 16.4061 13.7669 15.6741 15.1265 14.3711C16.4862 13.0681 17.25 11.3009 17.25 9.45817C17.25 7.61547 16.4862 5.84824 15.1265 4.54525C13.7669 3.24226 11.9228 2.51025 10 2.51025ZM1.25 9.45817C1.25 7.23422 2.17187 5.10136 3.81282 3.52879C5.45376 1.95621 7.67936 1.07275 10 1.07275C12.3206 1.07275 14.5462 1.95621 16.1872 3.52879C17.8281 5.10136 18.75 7.23422 18.75 9.45817C18.75 11.6821 17.8281 13.815 16.1872 15.3876C14.5462 16.9601 12.3206 17.8436 10 17.8436C7.67936 17.8436 5.45376 16.9601 3.81282 15.3876C2.17187 13.815 1.25 11.6821 1.25 9.45817Z" fill="black"/>
<path fill-rule="evenodd" clip-rule="evenodd" d="M9.99985 3.94794C10.1988 3.94794 10.3895 4.02366 10.5302 4.15845C10.6708 4.29324 10.7498 4.47606 10.7498 4.66669V9.05968L13.3978 10.6457C13.4814 10.6958 13.5538 10.7612 13.6109 10.8381C13.6681 10.915 13.7089 11.0019 13.731 11.0939C13.7531 11.186 13.7561 11.2812 13.7397 11.3744C13.7234 11.4675 13.6881 11.5566 13.6358 11.6366C13.5836 11.7167 13.5154 11.7861 13.4351 11.8409C13.3549 11.8956 13.2642 11.9347 13.1681 11.9559C12.9742 11.9987 12.7705 11.9659 12.6018 11.8647L9.60185 10.0679C9.49407 10.0032 9.40522 9.91332 9.34365 9.8067C9.28207 9.70008 9.24979 9.58021 9.24985 9.45835V4.66669C9.24985 4.47606 9.32886 4.29324 9.46952 4.15845C9.61017 4.02366 9.80093 3.94794 9.99985 3.94794ZM4.52985 0.325435C4.6703 0.460201 4.74919 0.642883 4.74919 0.833352C4.74919 1.02382 4.6703 1.2065 4.52985 1.34127L2.02985 3.7371C1.88767 3.86406 1.69963 3.93318 1.50532 3.92989C1.31102 3.92661 1.12564 3.85118 0.988225 3.71949C0.850812 3.5878 0.7721 3.41014 0.768672 3.22394C0.765243 3.03773 0.837366 2.85752 0.969847 2.72127L3.46985 0.325435C3.61047 0.190837 3.8011 0.115234 3.99985 0.115234C4.1986 0.115234 4.38922 0.190837 4.52985 0.325435ZM15.4698 0.325435C15.3294 0.460201 15.2505 0.642883 15.2505 0.833352C15.2505 1.02382 15.3294 1.2065 15.4698 1.34127L17.9698 3.7371C18.0385 3.80772 18.1213 3.86436 18.2133 3.90364C18.3053 3.94293 18.4046 3.96405 18.5053 3.96575C18.606 3.96745 18.7061 3.9497 18.7994 3.91355C18.8928 3.8774 18.9777 3.8236 19.0489 3.75535C19.1201 3.6871 19.1762 3.6058 19.214 3.5163C19.2517 3.4268 19.2702 3.33094 19.2684 3.23443C19.2667 3.13793 19.2446 3.04275 19.2036 2.95459C19.1626 2.86642 19.1035 2.78707 19.0298 2.72127L16.5298 0.325435C16.3892 0.190837 16.1986 0.115234 15.9998 0.115234C15.8011 0.115234 15.6105 0.190837 15.4698 0.325435Z" fill="black"/>
</svg>
