<svg width="1160" height="77" viewBox="0 0 1160 77" fill="none" xmlns="http://www.w3.org/2000/svg">
<path d="M64.44 4.92C64.0667 11.64 63.88 21.2933 63.88 33.88C63.88 46.4667 64.0667 56.12 64.44 62.84H44.28L44.52 48.36C38.6 52.4133 31.72 54.44 23.88 54.44C15.56 54.44 9.58667 52.4933 5.96 48.6C2.38667 44.7067 0.6 39.0533 0.6 31.64V22.2C0.6 14.9467 0.466667 9.18666 0.2 4.92H19.16C18.84 12.76 18.68 20.0667 18.68 26.84C18.68 29.56 19.0533 31.7467 19.8 33.4C20.6 35.0533 21.9067 36.28 23.72 37.08C25.5867 37.88 28.1733 38.28 31.48 38.28C36.8667 38.28 41.24 36.6 44.6 33.24V25.4C44.6 15.8533 44.4933 9.02666 44.28 4.92H64.44ZM139.545 21.72C131.172 21.4533 123.038 21.2933 115.145 21.24V63H95.145V21.24C87.1983 21.2933 79.0917 21.4533 70.825 21.72V4.92H139.545V21.72ZM181.581 63.8C169.368 63.8 160.381 61.16 154.621 55.88C148.861 50.5467 145.981 43.08 145.981 33.48C145.981 23.9867 148.835 16.5733 154.541 11.24C160.301 5.90666 169.315 3.24 181.581 3.24C193.901 3.24 202.915 5.90666 208.621 11.24C214.381 16.5733 217.261 23.9867 217.261 33.48C217.261 43.1333 214.408 50.6 208.701 55.88C202.995 61.16 193.955 63.8 181.581 63.8ZM181.581 47.48C187.501 47.48 191.768 46.36 194.381 44.12C196.995 41.8267 198.301 38.28 198.301 33.48C198.301 28.7867 196.995 25.2933 194.381 23C191.768 20.7067 187.501 19.56 181.581 19.56C175.715 19.56 171.475 20.7067 168.861 23C166.248 25.2933 164.941 28.7867 164.941 33.48C164.941 38.2267 166.248 41.7467 168.861 44.04C171.475 46.3333 175.715 47.48 181.581 47.48ZM314.453 4.92L320.693 63H299.973L298.693 21.56L290.693 63H269.733L261.573 21.88L260.373 63H239.653L245.893 4.92H273.093L280.053 42.76L286.133 4.92H314.453ZM412.275 31C412.222 34.2 412.195 39.1067 412.195 45.72C412.195 53.6667 412.248 59.4267 412.355 63H393.475L393.555 53.96C393.662 44.04 393.715 36.3867 393.715 31C393.715 25.88 393.662 18.6267 393.555 9.24L393.475 0.599998H412.355C412.302 2.30666 412.275 4.97333 412.275 8.6V23.56V31ZM360.995 19C368.302 19 374.035 19.9333 378.195 21.8C382.355 23.6133 385.262 26.1733 386.915 29.48C388.568 32.7333 389.395 36.7067 389.395 41.4C389.395 48.2267 387.315 53.5333 383.155 57.32C378.995 61.0533 371.608 62.92 360.995 62.92H346.755V63H327.075C327.502 52.6533 327.715 42.9733 327.715 33.96C327.715 24.9467 327.502 15.2667 327.075 4.92H346.755V19H360.995ZM357.795 47.08C361.528 47.08 364.328 46.92 366.195 46.6C368.115 46.2267 369.448 45.6133 370.195 44.76C370.942 43.9067 371.315 42.6 371.315 40.84C371.315 39.08 370.915 37.7467 370.115 36.84C369.315 35.9333 367.955 35.32 366.035 35C364.168 34.6267 361.422 34.44 357.795 34.44H346.755V47.08H357.795ZM499.449 4.92C499.076 13.9333 498.889 23.6133 498.889 33.96C498.889 44.3067 499.076 53.9867 499.449 63H480.649V21.08H453.609V63H434.809C435.236 52.6533 435.449 42.9733 435.449 33.96C435.449 24.9467 435.236 15.2667 434.809 4.92H499.449ZM542.145 5C552.758 5 560.145 6.89333 564.305 10.68C568.465 14.4133 570.545 19.6933 570.545 26.52C570.545 31.2133 569.718 35.2133 568.065 38.52C566.412 41.7733 563.505 44.3333 559.345 46.2C555.185 48.0133 549.452 48.92 542.145 48.92H525.505V63H505.825C506.252 52.6533 506.465 42.9733 506.465 33.96C506.465 24.9467 506.252 15.2667 505.825 4.92H525.505V5H542.145ZM536.545 33.48C540.972 33.48 544.278 33.32 546.465 33C548.705 32.6267 550.252 31.9867 551.105 31.08C552.012 30.1733 552.465 28.84 552.465 27.08C552.465 25.32 552.038 24.0133 551.185 23.16C550.385 22.2533 548.865 21.64 546.625 21.32C544.438 21 541.078 20.84 536.545 20.84H525.505V33.48H536.545ZM595.799 48.36C616.065 48.2533 630.759 47.96 639.879 47.48C639.505 49.6667 639.265 51.9333 639.159 54.28C639.105 56.5733 639.079 59.48 639.079 63H576.919C577.345 52.6533 577.559 42.9733 577.559 33.96C577.559 24.9467 577.345 15.2667 576.919 4.92H639.079V19.4H595.799V27.08C598.359 27.1333 602.145 27.16 607.159 27.16C615.639 27.16 624.412 27 633.479 26.68V40.44C624.412 40.12 615.639 39.96 607.159 39.96C602.145 39.96 598.359 39.9867 595.799 40.04V48.36ZM713.414 48.76H716.694V76.2H697.734V64.6H662.054V76.44H643.094V48.76H647.094C649.387 48.3333 651.147 47.4 652.374 45.96C653.6 44.52 654.507 42.2267 655.094 39.08C655.574 36.4667 655.814 30.52 655.814 21.24L655.734 4.92L713.414 5V48.76ZM673.734 45.32C673.414 46.8133 673.12 47.96 672.854 48.76H693.174V20.6H675.254L675.174 25.24C675.174 29.2933 675.067 32.8667 674.854 35.96C674.694 39 674.32 42.12 673.734 45.32ZM789.091 63H768.851V20.6H750.931L750.851 25.24C750.851 29.2933 750.744 32.8667 750.531 35.96C750.371 39 749.997 42.12 749.411 45.32C748.344 51.1333 745.624 55.8 741.251 59.32C736.931 62.84 730.877 64.6 723.091 64.6V49C725.171 48.5733 726.797 47.64 727.971 46.2C729.197 44.7067 730.131 42.3333 730.771 39.08C731.251 36.4667 731.491 30.52 731.491 21.24L731.411 4.92L789.091 5V63ZM845.993 63C844.979 59.96 843.619 56.1467 841.913 51.56H816.393L812.393 63H792.312L814.713 4.92H844.153L866.713 63H845.993ZM837.353 39.08C835.326 33.48 833.246 27.88 831.113 22.28L829.193 17.08C827.326 21.9333 824.579 29.2667 820.953 39.08H837.353ZM890.501 63H870.981C871.408 52.6 871.621 42.92 871.621 33.96C871.621 24.9467 871.408 15.2667 870.981 4.92H927.621C927.515 9.29333 927.461 12.6267 927.461 14.92C927.461 17.7467 927.488 19.88 927.541 21.32H890.501V63ZM984.508 63C983.495 59.96 982.135 56.1467 980.428 51.56H954.908L950.908 63H930.828L953.228 4.92H982.668L1005.23 63H984.508ZM975.868 39.08C973.841 33.48 971.761 27.88 969.628 22.28L967.708 17.08C965.841 21.9333 963.095 29.2667 959.468 39.08H975.868ZM1028.38 48.36C1048.64 48.2533 1063.34 47.96 1072.46 47.48C1072.08 49.6667 1071.84 51.9333 1071.74 54.28C1071.68 56.5733 1071.66 59.48 1071.66 63H1009.5C1009.92 52.6533 1010.14 42.9733 1010.14 33.96C1010.14 24.9467 1009.92 15.2667 1009.5 4.92H1071.66V19.4H1028.38V27.08C1030.94 27.1333 1034.72 27.16 1039.74 27.16C1048.22 27.16 1056.99 27 1066.06 26.68V40.44C1056.99 40.12 1048.22 39.96 1039.74 39.96C1034.72 39.96 1030.94 39.9867 1028.38 40.04V48.36ZM1153.67 4.92L1159.91 63H1139.19L1137.91 21.56L1129.91 63H1108.95L1100.79 21.88L1099.59 63H1078.87L1085.11 4.92H1112.31L1119.27 42.76L1125.35 4.92H1153.67Z" fill="url(#paint0_linear_502_567)"/>
<defs>
<linearGradient id="paint0_linear_502_567" x1="624.5" y1="-30" x2="629" y2="86" gradientUnits="userSpaceOnUse">
<stop stop-color="#92D7C7"/>
<stop offset="1" stop-color="#1A5043"/>
</linearGradient>
</defs>
</svg>
