<svg width="888" height="408" viewBox="0 0 888 408" fill="none" xmlns="http://www.w3.org/2000/svg">
<path d="M347.613 349L346.253 393.88L365.693 349H395.133C394.759 358.013 394.573 367.667 394.573 377.96C394.573 388.307 394.759 397.987 395.133 407H374.573L376.013 363.32L356.653 407H328.013C328.439 396.653 328.653 386.973 328.653 377.96C328.653 369 328.439 359.347 328.013 349H347.613Z" fill="white"/>
<path d="M315.391 348.92L321.631 407H300.911L299.631 365.56L291.631 407H270.671L262.511 365.88L261.311 407H240.591L246.831 348.92H274.031L280.991 386.76L287.071 348.92H315.391Z" fill="white"/>
<path d="M215.602 407C214.589 403.96 213.229 400.147 211.522 395.56H186.002L182.002 407H161.922L184.322 348.92H213.762L236.322 407H215.602ZM206.962 383.08C204.935 377.48 202.855 371.88 200.722 366.28L198.802 361.08C196.935 365.933 194.189 373.267 190.562 383.08H206.962Z" fill="white"/>
<path d="M158.725 348.92C158.351 357.933 158.165 367.613 158.165 377.96C158.165 388.307 158.351 397.987 158.725 407H139.925V385.24H110.485V407H91.6846C92.1112 396.653 92.3246 386.973 92.3246 377.96C92.3246 368.947 92.1112 359.267 91.6846 348.92H110.485V370.68H139.925V348.92H158.725Z" fill="white"/>
<path d="M35.4002 407.8C23.3469 407.8 14.4669 405.24 8.76019 400.12C3.05353 395 0.200195 387.693 0.200195 378.2C0.200195 368.653 3.05353 361.107 8.76019 355.56C14.4669 350.013 23.3469 347.24 35.4002 347.24C52.2535 347.24 63.5335 353.027 69.2402 364.6C64.4402 366.253 58.8135 368.733 52.3602 372.04C50.8135 369.053 48.3602 366.84 45.0002 365.4C41.6935 363.96 38.3069 363.24 34.8402 363.24C29.7202 363.24 25.9069 364.6 23.4002 367.32C20.8935 369.987 19.6402 373.293 19.6402 377.24C19.6402 381.507 20.9735 385 23.6402 387.72C26.3602 390.387 30.4935 391.72 36.0402 391.72C40.4669 391.72 43.9869 391 46.6002 389.56C49.2135 388.067 51.1335 385.72 52.3602 382.52C56.7335 384.867 62.3335 387.507 69.1602 390.44C66.4935 396.893 62.0402 401.4 55.8002 403.96C49.5602 406.52 42.7602 407.8 35.4002 407.8Z" fill="white"/>
<path d="M417.128 291.8C404.915 291.8 395.928 289.16 390.168 283.88C384.408 278.547 381.528 271.08 381.528 261.48C381.528 251.987 384.382 244.573 390.088 239.24C395.848 233.907 404.862 231.24 417.128 231.24C429.448 231.24 438.462 233.907 444.168 239.24C449.928 244.573 452.808 251.987 452.808 261.48C452.808 271.133 449.955 278.6 444.248 283.88C438.542 289.16 429.502 291.8 417.128 291.8ZM417.128 275.48C423.048 275.48 427.315 274.36 429.928 272.12C432.542 269.827 433.848 266.28 433.848 261.48C433.848 256.787 432.542 253.293 429.928 251C427.315 248.707 423.048 247.56 417.128 247.56C411.262 247.56 407.022 248.707 404.408 251C401.795 253.293 400.488 256.787 400.488 261.48C400.488 266.227 401.795 269.747 404.408 272.04C407.022 274.333 411.262 275.48 417.128 275.48Z" fill="white"/>
<path d="M346.755 233C357.368 233 364.755 234.893 368.915 238.68C373.075 242.413 375.155 247.693 375.155 254.52C375.155 259.213 374.328 263.213 372.675 266.52C371.021 269.773 368.115 272.333 363.955 274.2C359.795 276.013 354.061 276.92 346.755 276.92H330.115V291H310.435C310.861 280.653 311.075 270.973 311.075 261.96C311.075 252.947 310.861 243.267 310.435 232.92H330.115V233H346.755ZM341.155 261.48C345.581 261.48 348.888 261.32 351.075 261C353.315 260.627 354.861 259.987 355.715 259.08C356.621 258.173 357.075 256.84 357.075 255.08C357.075 253.32 356.648 252.013 355.795 251.16C354.995 250.253 353.475 249.64 351.235 249.32C349.048 249 345.688 248.84 341.155 248.84H330.115V261.48H341.155Z" fill="white"/>
<path d="M303.998 249.72C295.625 249.453 287.492 249.293 279.598 249.24V291H259.598V249.24C251.652 249.293 243.545 249.453 235.278 249.72V232.92H303.998V249.72Z" fill="white"/>
<path d="M195.01 291.8C182.956 291.8 174.076 289.24 168.37 284.12C162.663 279 159.81 271.693 159.81 262.2C159.81 252.653 162.663 245.107 168.37 239.56C174.076 234.013 182.956 231.24 195.01 231.24C211.863 231.24 223.143 237.027 228.85 248.6C224.05 250.253 218.423 252.733 211.97 256.04C210.423 253.053 207.97 250.84 204.61 249.4C201.303 247.96 197.916 247.24 194.45 247.24C189.33 247.24 185.516 248.6 183.01 251.32C180.503 253.987 179.25 257.293 179.25 261.24C179.25 265.507 180.583 269 183.25 271.72C185.97 274.387 190.103 275.72 195.65 275.72C200.076 275.72 203.596 275 206.21 273.56C208.823 272.067 210.743 269.72 211.97 266.52C216.343 268.867 221.943 271.507 228.77 274.44C226.103 280.893 221.65 285.4 215.41 287.96C209.17 290.52 202.37 291.8 195.01 291.8Z" fill="white"/>
<path d="M153.291 259C153.237 262.2 153.211 267.107 153.211 273.72C153.211 281.667 153.264 287.427 153.371 291H134.491L134.571 281.96C134.677 272.04 134.731 264.387 134.731 259C134.731 253.88 134.677 246.627 134.571 237.24L134.491 228.6H153.371C153.317 230.307 153.291 232.973 153.291 236.6V251.56V259ZM102.011 247C109.317 247 115.051 247.933 119.211 249.8C123.371 251.613 126.277 254.173 127.931 257.48C129.584 260.733 130.411 264.707 130.411 269.4C130.411 276.227 128.331 281.533 124.171 285.32C120.011 289.053 112.624 290.92 102.011 290.92H87.7708V291H68.0908C68.5175 280.653 68.7308 270.973 68.7308 261.96C68.7308 252.947 68.5175 243.267 68.0908 232.92H87.7708V247H102.011ZM98.8108 275.08C102.544 275.08 105.344 274.92 107.211 274.6C109.131 274.227 110.464 273.613 111.211 272.76C111.957 271.907 112.331 270.6 112.331 268.84C112.331 267.08 111.931 265.747 111.131 264.84C110.331 263.933 108.971 263.32 107.051 263C105.184 262.627 102.437 262.44 98.8108 262.44H87.7708V275.08H98.8108Z" fill="white"/>
<path d="M34.1202 254.76C41.4269 254.76 47.1602 255.533 51.3202 257.08C55.4802 258.573 58.3869 260.653 60.0402 263.32C61.6935 265.987 62.5202 269.267 62.5202 273.16C62.5202 278.813 60.4402 283.187 56.2802 286.28C52.1202 289.373 44.7335 290.92 34.1202 290.92H19.8802V291H0.200195C0.626862 280.653 0.840195 270.973 0.840195 261.96C0.840195 252.947 0.626862 243.267 0.200195 232.92H59.1602V249H19.8802V254.76H34.1202ZM30.9202 277.08C34.6002 277.08 37.3735 276.947 39.2402 276.68C41.1602 276.413 42.4935 275.987 43.2402 275.4C44.0402 274.813 44.4402 273.933 44.4402 272.76C44.4402 271.587 44.0402 270.68 43.2402 270.04C42.4402 269.4 41.0802 268.947 39.1602 268.68C37.2402 268.413 34.4935 268.28 30.9202 268.28H19.8802V277.08H30.9202Z" fill="white"/>
<path d="M858.964 131C866.271 131 872.004 131.933 876.164 133.8C880.324 135.613 883.231 138.173 884.884 141.48C886.537 144.733 887.364 148.707 887.364 153.4C887.364 160.227 885.284 165.533 881.124 169.32C876.964 173.053 869.577 174.92 858.964 174.92H844.724V175H825.044C825.471 164.653 825.684 154.973 825.684 145.96C825.684 136.947 825.471 127.267 825.044 116.92H844.724V131H858.964ZM855.764 159.08C859.497 159.08 862.297 158.92 864.164 158.6C866.084 158.227 867.417 157.613 868.164 156.76C868.911 155.907 869.284 154.6 869.284 152.84C869.284 151.08 868.884 149.747 868.084 148.84C867.284 147.933 865.924 147.32 864.004 147C862.137 146.627 859.391 146.44 855.764 146.44H844.724V159.08H855.764Z" fill="url(#paint0_linear_499_518)"/>
<path d="M818.608 133.72C810.234 133.453 802.101 133.293 794.208 133.24V175H774.208V133.24C766.261 133.293 758.154 133.453 749.888 133.72V116.92H818.608V133.72Z" fill="url(#paint1_linear_499_518)"/>
<path d="M724.899 175C723.885 171.96 722.525 168.147 720.819 163.56H695.299L691.299 175H671.219L693.619 116.92H723.059L745.619 175H724.899ZM716.259 151.08C714.232 145.48 712.152 139.88 710.019 134.28L708.099 129.08C706.232 133.933 703.485 141.267 699.859 151.08H716.259Z" fill="url(#paint2_linear_499_518)"/>
<path d="M649.815 146.12C661.975 146.12 668.055 149.987 668.055 157.72C668.055 161.347 667.228 164.44 665.575 167C663.921 169.507 660.961 171.48 656.695 172.92C652.428 174.307 646.508 175 638.935 175H602.935C603.361 164.653 603.575 154.973 603.575 145.96C603.575 136.947 603.361 127.267 602.935 116.92H621.735V117H638.775C645.388 117 650.588 117.56 654.375 118.68C658.215 119.747 660.908 121.32 662.455 123.4C664.055 125.48 664.855 128.12 664.855 131.32C664.855 134.573 663.708 137.48 661.415 140.04C659.175 142.547 655.308 144.573 649.815 146.12ZM621.735 131.56V139H637.095C640.401 139 642.695 138.707 643.975 138.12C645.308 137.533 645.975 136.467 645.975 134.92C645.975 133.693 645.281 132.84 643.895 132.36C642.561 131.827 640.295 131.56 637.095 131.56H621.735ZM637.095 160.36C639.868 160.36 641.975 160.253 643.415 160.04C644.908 159.773 645.975 159.347 646.615 158.76C647.255 158.12 647.575 157.267 647.575 156.2C647.575 154.813 646.801 153.827 645.255 153.24C643.761 152.6 641.041 152.28 637.095 152.28H621.735V160.36H637.095Z" fill="url(#paint3_linear_499_518)"/>
<path d="M596.416 143C596.363 146.2 596.336 151.107 596.336 157.72C596.336 165.667 596.389 171.427 596.496 175H577.616L577.696 165.96C577.802 156.04 577.856 148.387 577.856 143C577.856 137.88 577.802 130.627 577.696 121.24L577.616 112.6H596.496C596.442 114.307 596.416 116.973 596.416 120.6V135.56V143ZM545.136 131C552.442 131 558.176 131.933 562.336 133.8C566.496 135.613 569.402 138.173 571.056 141.48C572.709 144.733 573.536 148.707 573.536 153.4C573.536 160.227 571.456 165.533 567.296 169.32C563.136 173.053 555.749 174.92 545.136 174.92H530.896V175H511.216C511.642 164.653 511.856 154.973 511.856 145.96C511.856 136.947 511.642 127.267 511.216 116.92H530.896V131H545.136ZM541.936 159.08C545.669 159.08 548.469 158.92 550.336 158.6C552.256 158.227 553.589 157.613 554.336 156.76C555.082 155.907 555.456 154.6 555.456 152.84C555.456 151.08 555.056 149.747 554.256 148.84C553.456 147.933 552.096 147.32 550.176 147C548.309 146.627 545.562 146.44 541.936 146.44H530.896V159.08H541.936Z" fill="url(#paint4_linear_499_518)"/>
<path d="M504.78 133.72C496.406 133.453 488.273 133.293 480.38 133.24V175H460.38V133.24C452.433 133.293 444.326 133.453 436.06 133.72V116.92H504.78V133.72Z" fill="url(#paint5_linear_499_518)"/>
<path d="M411.071 175C410.057 171.96 408.697 168.147 406.991 163.56H381.471L377.471 175H357.391L379.791 116.92H409.231L431.791 175H411.071ZM402.431 151.08C400.404 145.48 398.324 139.88 396.191 134.28L394.271 129.08C392.404 133.933 389.657 141.267 386.031 151.08H402.431Z" fill="url(#paint6_linear_499_518)"/>
<path d="M326.62 138.76C333.927 138.76 339.66 139.533 343.82 141.08C347.98 142.573 350.887 144.653 352.54 147.32C354.194 149.987 355.02 153.267 355.02 157.16C355.02 162.813 352.94 167.187 348.78 170.28C344.62 173.373 337.234 174.92 326.62 174.92H312.38V175H292.7C293.127 164.653 293.34 154.973 293.34 145.96C293.34 136.947 293.127 127.267 292.7 116.92H351.66V133H312.38V138.76H326.62ZM323.42 161.08C327.1 161.08 329.874 160.947 331.74 160.68C333.66 160.413 334.994 159.987 335.74 159.4C336.54 158.813 336.94 157.933 336.94 156.76C336.94 155.587 336.54 154.68 335.74 154.04C334.94 153.4 333.58 152.947 331.66 152.68C329.74 152.413 326.994 152.28 323.42 152.28H312.38V161.08H323.42Z" fill="url(#paint7_linear_499_518)"/>
<path d="M267.711 175C266.698 171.96 265.338 168.147 263.631 163.56H238.111L234.111 175H214.031L236.431 116.92H265.871L288.431 175H267.711ZM259.071 151.08C257.045 145.48 254.965 139.88 252.831 134.28L250.911 129.08C249.045 133.933 246.298 141.267 242.671 151.08H259.071Z" fill="url(#paint8_linear_499_518)"/>
<path d="M182.458 117C193.071 117 200.458 118.893 204.618 122.68C208.778 126.413 210.858 131.693 210.858 138.52C210.858 143.213 210.031 147.213 208.378 150.52C206.724 153.773 203.818 156.333 199.658 158.2C195.498 160.013 189.764 160.92 182.458 160.92H165.818V175H146.138C146.564 164.653 146.778 154.973 146.778 145.96C146.778 136.947 146.564 127.267 146.138 116.92H165.818V117H182.458ZM176.858 145.48C181.284 145.48 184.591 145.32 186.778 145C189.018 144.627 190.564 143.987 191.418 143.08C192.324 142.173 192.778 140.84 192.778 139.08C192.778 137.32 192.351 136.013 191.498 135.16C190.698 134.253 189.178 133.64 186.938 133.32C184.751 133 181.391 132.84 176.858 132.84H165.818V145.48H176.858Z" fill="url(#paint9_linear_499_518)"/>
<path d="M121.149 175C120.135 171.96 118.775 168.147 117.069 163.56H91.5488L87.5488 175H67.4688L89.8688 116.92H119.309L141.869 175H121.149ZM112.509 151.08C110.482 145.48 108.402 139.88 106.269 134.28L104.349 129.08C102.482 133.933 99.7354 141.267 96.1087 151.08H112.509Z" fill="url(#paint10_linear_499_518)"/>
<path d="M44.8403 145.56C46.7603 145.187 48.6536 145 50.5203 145C53.7736 145 56.4136 145.56 58.4403 146.68C60.5203 147.747 62.0136 149.133 62.9203 150.84C63.8269 152.493 64.2803 154.227 64.2803 156.04C64.2803 160.253 62.8936 163.853 60.1203 166.84C57.3469 169.773 53.5869 172.013 48.8403 173.56C44.0936 175.053 38.8136 175.8 33.0003 175.8C16.1469 175.8 5.24027 169.933 0.280273 158.2L4.76027 157.08C8.06694 156.28 10.8669 155.533 13.1603 154.84C15.5069 154.093 17.5603 153.267 19.3203 152.36C20.3869 155.027 21.9069 156.947 23.8803 158.12C25.9069 159.24 28.6803 159.8 32.2003 159.8C35.9336 159.8 38.9736 159.373 41.3203 158.52C43.6669 157.667 44.8403 156.387 44.8403 154.68C44.8403 153.773 44.3869 153.08 43.4803 152.6C42.5736 152.12 41.1336 151.8 39.1603 151.64C37.1869 151.427 34.4136 151.32 30.8403 151.32H24.7603V137.32H28.4403C32.4936 137.32 35.8003 137.16 38.3603 136.84C40.9203 136.467 42.2003 135.693 42.2003 134.52C42.2003 133.187 41.5069 132.12 40.1203 131.32C38.7869 130.467 36.6803 130.04 33.8003 130.04C30.0669 130.04 27.0269 130.813 24.6803 132.36C22.3869 133.907 20.6003 136.147 19.3203 139.08C13.6136 136.787 7.53361 135.16 1.08027 134.2C3.64027 128.44 7.56027 123.987 12.8403 120.84C18.1736 117.693 25.0269 116.12 33.4003 116.12C38.8403 116.12 43.7203 116.84 48.0403 118.28C52.4136 119.667 55.8269 121.613 58.2803 124.12C60.7869 126.627 62.0403 129.427 62.0403 132.52C62.0403 134.333 61.6136 135.96 60.7603 137.4C59.9069 138.787 58.2269 140.173 55.7203 141.56C53.2136 142.893 49.5869 144.227 44.8403 145.56Z" fill="url(#paint11_linear_499_518)"/>
<path d="M312.769 1L311.409 45.88L330.849 1H360.289C359.916 10.0133 359.729 19.6667 359.729 29.96C359.729 40.3067 359.916 49.9867 360.289 59H339.729L341.169 15.32L321.809 59H293.169C293.596 48.6533 293.809 38.9733 293.809 29.96C293.809 21 293.596 11.3467 293.169 1H312.769Z" fill="url(#paint12_linear_499_518)"/>
<path d="M286.771 0.919922C286.398 9.93325 286.211 19.6133 286.211 29.9599C286.211 40.3066 286.398 49.9866 286.771 58.9999H267.971V37.2399H238.531V58.9999H219.731C220.158 48.6533 220.371 38.9733 220.371 29.9599C220.371 20.9466 220.158 11.2666 219.731 0.919922H238.531V22.6799H267.971V0.919922H286.771Z" fill="url(#paint13_linear_499_518)"/>
<path d="M213.346 0.919922C212.973 7.63992 212.786 17.2933 212.786 29.8799C212.786 42.4666 212.973 52.1199 213.346 58.8399H193.186L193.426 44.3599C187.506 48.4133 180.626 50.4399 172.786 50.4399C164.466 50.4399 158.493 48.4933 154.866 44.5999C151.293 40.7066 149.506 35.0533 149.506 27.6399V18.1999C149.506 10.9466 149.373 5.18659 149.106 0.919922H168.066C167.746 8.75992 167.586 16.0666 167.586 22.8399C167.586 25.5599 167.96 27.7466 168.706 29.3999C169.506 31.0533 170.813 32.2799 172.626 33.0799C174.493 33.8799 177.08 34.2799 180.386 34.2799C185.773 34.2799 190.146 32.5999 193.506 29.2399V21.3999C193.506 11.8533 193.4 5.02659 193.186 0.919922H213.346Z" fill="url(#paint14_linear_499_518)"/>
<path d="M124.118 58.9999C123.104 55.9599 121.744 52.1466 120.037 47.5599H94.5175L90.5175 58.9999H70.4375L92.8375 0.919922H122.277L144.838 58.9999H124.118ZM115.478 35.0799C113.451 29.4799 111.371 23.8799 109.238 18.2799L107.318 13.0799C105.451 17.9333 102.704 25.2666 99.0775 35.0799H115.478Z" fill="url(#paint15_linear_499_518)"/>
<path d="M67.2402 0.919922C66.8669 9.93325 66.6802 19.6133 66.6802 29.9599C66.6802 40.3066 66.8669 49.9866 67.2402 58.9999H48.4402V37.2399H19.0002V58.9999H0.200195C0.626862 48.6533 0.840195 38.9733 0.840195 29.9599C0.840195 20.9466 0.626862 11.2666 0.200195 0.919922H19.0002V22.6799H48.4402V0.919922H67.2402Z" fill="url(#paint16_linear_499_518)"/>
<defs>
<linearGradient id="paint0_linear_499_518" x1="850.424" y1="113.459" x2="857.397" y2="172.453" gradientUnits="userSpaceOnUse">
<stop stop-color="#42B197"/>
<stop offset="0.5" stop-color="#186B57"/>
<stop offset="1" stop-color="#0C4134"/>
</linearGradient>
<linearGradient id="paint1_linear_499_518" x1="777.874" y1="113.459" x2="784.213" y2="172.598" gradientUnits="userSpaceOnUse">
<stop stop-color="#42B197"/>
<stop offset="0.5" stop-color="#186B57"/>
<stop offset="1" stop-color="#0C4134"/>
</linearGradient>
<linearGradient id="paint2_linear_499_518" x1="701.518" y1="113.459" x2="707.383" y2="172.696" gradientUnits="userSpaceOnUse">
<stop stop-color="#42B197"/>
<stop offset="0.5" stop-color="#186B57"/>
<stop offset="1" stop-color="#0C4134"/>
</linearGradient>
<linearGradient id="paint3_linear_499_518" x1="629.455" y1="113.459" x2="636.136" y2="172.521" gradientUnits="userSpaceOnUse">
<stop stop-color="#42B197"/>
<stop offset="0.5" stop-color="#186B57"/>
<stop offset="1" stop-color="#0C4134"/>
</linearGradient>
<linearGradient id="paint4_linear_499_518" x1="545.946" y1="108.882" x2="551.859" y2="172.6" gradientUnits="userSpaceOnUse">
<stop stop-color="#42B197"/>
<stop offset="0.5" stop-color="#186B57"/>
<stop offset="1" stop-color="#0C4134"/>
</linearGradient>
<linearGradient id="paint5_linear_499_518" x1="464.046" y1="113.459" x2="470.385" y2="172.598" gradientUnits="userSpaceOnUse">
<stop stop-color="#42B197"/>
<stop offset="0.5" stop-color="#186B57"/>
<stop offset="1" stop-color="#0C4134"/>
</linearGradient>
<linearGradient id="paint6_linear_499_518" x1="387.69" y1="113.459" x2="393.555" y2="172.696" gradientUnits="userSpaceOnUse">
<stop stop-color="#42B197"/>
<stop offset="0.5" stop-color="#186B57"/>
<stop offset="1" stop-color="#0C4134"/>
</linearGradient>
<linearGradient id="paint7_linear_499_518" x1="318.08" y1="113.459" x2="325.053" y2="172.453" gradientUnits="userSpaceOnUse">
<stop stop-color="#42B197"/>
<stop offset="0.5" stop-color="#186B57"/>
<stop offset="1" stop-color="#0C4134"/>
</linearGradient>
<linearGradient id="paint8_linear_499_518" x1="244.331" y1="113.459" x2="250.196" y2="172.696" gradientUnits="userSpaceOnUse">
<stop stop-color="#42B197"/>
<stop offset="0.5" stop-color="#186B57"/>
<stop offset="1" stop-color="#0C4134"/>
</linearGradient>
<linearGradient id="paint9_linear_499_518" x1="172.495" y1="113.459" x2="179.216" y2="172.512" gradientUnits="userSpaceOnUse">
<stop stop-color="#42B197"/>
<stop offset="0.5" stop-color="#186B57"/>
<stop offset="1" stop-color="#0C4134"/>
</linearGradient>
<linearGradient id="paint10_linear_499_518" x1="97.7684" y1="113.459" x2="103.633" y2="172.696" gradientUnits="userSpaceOnUse">
<stop stop-color="#42B197"/>
<stop offset="0.5" stop-color="#186B57"/>
<stop offset="1" stop-color="#0C4134"/>
</linearGradient>
<linearGradient id="paint11_linear_499_518" x1="26.3444" y1="112.564" x2="33.5134" y2="173.182" gradientUnits="userSpaceOnUse">
<stop stop-color="#42B197"/>
<stop offset="0.5" stop-color="#186B57"/>
<stop offset="1" stop-color="#0C4134"/>
</linearGradient>
<linearGradient id="paint12_linear_499_518" x1="320.504" y1="-2.45583" x2="326.973" y2="56.5706" gradientUnits="userSpaceOnUse">
<stop stop-color="#42B197"/>
<stop offset="0.5" stop-color="#186B57"/>
<stop offset="1" stop-color="#0C4134"/>
</linearGradient>
<linearGradient id="paint13_linear_499_518" x1="247.034" y1="-2.54067" x2="253.528" y2="56.5635" gradientUnits="userSpaceOnUse">
<stop stop-color="#42B197"/>
<stop offset="0.5" stop-color="#186B57"/>
<stop offset="1" stop-color="#0C4134"/>
</linearGradient>
<linearGradient id="paint14_linear_499_518" x1="175.268" y1="-2.53114" x2="182.001" y2="56.3519" gradientUnits="userSpaceOnUse">
<stop stop-color="#42B197"/>
<stop offset="0.5" stop-color="#186B57"/>
<stop offset="1" stop-color="#0C4134"/>
</linearGradient>
<linearGradient id="paint15_linear_499_518" x1="100.737" y1="-2.54067" x2="106.602" y2="56.6964" gradientUnits="userSpaceOnUse">
<stop stop-color="#42B197"/>
<stop offset="0.5" stop-color="#186B57"/>
<stop offset="1" stop-color="#0C4134"/>
</linearGradient>
<linearGradient id="paint16_linear_499_518" x1="27.5024" y1="-2.54067" x2="33.9965" y2="56.5635" gradientUnits="userSpaceOnUse">
<stop stop-color="#42B197"/>
<stop offset="0.5" stop-color="#186B57"/>
<stop offset="1" stop-color="#0C4134"/>
</linearGradient>
</defs>
</svg>
